<?xml version="1.0" standalone="no"?>
<!DOCTYPE svg PUBLIC "-//W3C//DTD SVG 1.1//EN" "http://www.w3.org/Graphics/SVG/1.1/DTD/svg11.dtd" >
<svg xmlns="http://www.w3.org/2000/svg">
<metadata></metadata>
<defs>
<font id="print_boldregular" horiz-adv-x="845" >
<font-face units-per-em="2048" ascent="1546" descent="-502" />
<missing-glyph horiz-adv-x="440" />
<glyph horiz-adv-x="2048" />
<glyph horiz-adv-x="2048" />
<glyph unicode="&#xd;" horiz-adv-x="608" />
<glyph unicode=" "  horiz-adv-x="440" />
<glyph unicode="&#x09;" horiz-adv-x="440" />
<glyph unicode="&#xa0;" horiz-adv-x="440" />
<glyph unicode="!" horiz-adv-x="376" d="M141 74q0 33 23.5 56.5t58.5 23.5q31 0 55.5 -24t24.5 -56q0 -35 -24.5 -58.5t-55.5 -23.5q-35 0 -58.5 23.5t-23.5 58.5zM158 289v882q0 25 18.5 45.5t46.5 20.5q23 0 43.5 -20.5t20.5 -45.5v-882q0 -29 -20.5 -48.5t-43.5 -19.5q-29 0 -47 19.5t-18 48.5z" />
<glyph unicode="&#x22;" horiz-adv-x="483" d="M141 860v307q0 29 18.5 47.5t45.5 18.5q29 0 47 -18.5t18 -47.5v-307q0 -27 -18.5 -45t-46.5 -18q-27 0 -45.5 18.5t-18.5 44.5zM342 860v307q0 29 17.5 47.5t46.5 18.5t47 -18.5t18 -47.5v-307q0 -27 -18.5 -45t-46.5 -18q-29 0 -46.5 18.5t-17.5 44.5z" />
<glyph unicode="#" horiz-adv-x="937" d="M141 780q0 23 18.5 43.5t45.5 20.5h55l23 88h-78q-27 0 -45.5 18.5t-18.5 42.5q0 29 18.5 47.5t45.5 18.5h108l29 121l-2 -2q4 23 22.5 37t40.5 14q27 0 45.5 -18.5t18.5 -45.5q0 -10 -6 -38.5t-15 -59.5v-8h156l29 121l-2 -2q4 23 21.5 37t39.5 14q29 0 47.5 -18.5 t18.5 -45.5q0 -10 -8.5 -42.5t-14.5 -63.5h27q27 0 45 -18.5t18 -47.5q0 -25 -18.5 -43t-44.5 -18h-55l-23 -88h78q27 0 45 -20.5t18 -43.5q0 -29 -18.5 -47t-44.5 -18h-109l-28 -119l2 2q-4 -27 -22.5 -40t-41.5 -13q-27 0 -45 18.5t-18 44.5q0 10 7 43t15 64h-155 l-31 -119l2 2q-4 -27 -21.5 -40t-40.5 -13q-29 0 -47 18.5t-18 44.5q0 10 8 43t14 64h-26q-27 0 -45.5 18.5t-18.5 46.5zM393 844h156l22 88h-157z" />
<glyph unicode="$" horiz-adv-x="997" d="M141 346q0 27 20.5 45.5t45.5 18.5q31 0 45 -18.5t18 -41.5q0 -82 41 -149.5t125 -91.5v483q-55 18 -108.5 46t-95.5 65.5t-66.5 90t-24.5 124.5q0 63 22.5 118.5t62.5 97.5t93.5 68.5t114.5 34.5q2 29 14.5 53.5t51.5 24.5q45 0 55 -27.5t10 -56.5q123 -27 193.5 -119 t70.5 -219q0 -29 -19 -45.5t-44 -16.5q-35 0 -47 15.5t-17 38.5q-10 45 -18 79.5t-21.5 60.5t-36 43t-61.5 28v-412q57 -25 114.5 -58.5t101.5 -79.5t72 -103.5t28 -129.5q0 -74 -23.5 -133t-66.5 -103t-100.5 -72t-125.5 -34v-159q0 -23 -18.5 -43.5t-46.5 -20.5 q-23 0 -43.5 20.5t-20.5 43.5v163q-137 29 -216 128.5t-79 242.5zM270 918q0 -72 51.5 -117t114.5 -72v377q-70 -14 -118 -65t-48 -123zM565 100q84 10 135.5 66.5t51.5 148.5q0 84 -56.5 139.5t-130.5 90.5v-445z" />
<glyph unicode="%" horiz-adv-x="1497" d="M141 881q0 57 18.5 121.5t54.5 119t89 89t125 34.5q70 0 123 -34.5t89 -89t54.5 -119t18.5 -121.5q0 -59 -18.5 -124t-54.5 -119t-89 -89t-123 -35q-72 0 -125 35t-89 89t-54.5 118.5t-18.5 124.5zM270 881q0 -37 9.5 -78t29 -77t49 -59.5t70.5 -23.5q39 0 68.5 23.5 t49 59.5t29 77t9.5 78t-9.5 77.5t-29 75.5t-49 58.5t-68.5 23.5q-41 0 -70.5 -23.5t-49 -58.5t-29 -75.5t-9.5 -77.5zM418 41q0 8 28.5 72.5t73.5 162t102.5 216t113 234.5t104.5 217t80 165l32 72q8 16 24.5 26.5t35.5 10.5q27 0 44 -18.5t17 -47.5q0 -4 -17.5 -45 t-48 -106.5t-70.5 -150.5t-84 -178t-88 -187.5t-84 -177.5t-73 -151.5t-51 -107.5q-20 -41 -32.5 -55.5t-41.5 -14.5q-25 0 -45 18.5t-20 45.5zM770 311q0 59 18.5 124t54.5 118t89 88t123 35q72 0 125 -35t89 -88t54 -117.5t18 -124.5q0 -59 -18 -124.5t-54 -119t-89.5 -88 t-124.5 -34.5q-70 0 -123 34.5t-89 88t-54.5 119t-18.5 124.5zM897 311q0 -37 9 -77.5t29.5 -76.5t49.5 -59.5t70 -23.5q39 0 68.5 23.5t50 59.5t29.5 76.5t9 77.5q0 35 -9 77t-29.5 78t-50 59.5t-68.5 23.5q-41 0 -70 -23.5t-49.5 -59.5t-29.5 -78t-9 -77z" />
<glyph unicode="&#x26;" horiz-adv-x="1492" d="M98 240q0 72 31 133t79 113.5t106.5 96.5t111.5 81q-49 66 -86 140.5t-37 158.5q0 68 27.5 121t73 91.5t103.5 59t120 20.5q57 0 106 -17t86 -50t57.5 -80t20.5 -109q0 -66 -26.5 -118t-67.5 -96t-90 -80.5t-97 -69.5q100 -106 223.5 -199.5t247.5 -179.5 q29 49 45.5 110.5t16.5 116.5q0 31 -10.5 65t-10.5 70q0 25 18.5 44.5t47.5 19.5t45 -26.5t24.5 -61.5t10.5 -66.5t2 -44.5q0 -78 -23.5 -155.5t-58.5 -143.5l47 -26q23 -12 48.5 -27.5t47 -31t34.5 -34t13 -36.5q0 -25 -18 -45.5t-45 -20.5q-8 0 -32.5 12.5t-54.5 31 t-61.5 39t-54.5 36.5h2h-4q-104 -111 -248.5 -159t-287.5 -48q-78 0 -162 17.5t-156 59.5t-118 111.5t-46 176.5zM227 236q0 -68 34 -112t85 -70.5t112.5 -38t119.5 -11.5q117 0 232.5 34t199.5 116q-135 92 -262 189t-238 220q-45 -29 -94 -65.5t-91 -77.5t-70 -88t-28 -96 zM432 965q0 -59 30 -120t68 -112q37 25 79 54.5t77 63.5t58.5 70.5t23.5 77.5q0 63 -40 95t-101 32q-37 0 -72 -11t-62.5 -31.5t-44 -51t-16.5 -67.5z" />
<glyph unicode="'" horiz-adv-x="339" d="M141 860v307q0 29 18.5 47.5t47.5 18.5t46 -18.5t17 -47.5v-307q0 -27 -17 -45t-46 -18t-47.5 18.5t-18.5 44.5z" />
<glyph unicode="(" horiz-adv-x="630" d="M141 401q0 160 25 314q8 51 29.5 133t58.5 159.5t91 134t130 56.5q25 0 45.5 -20.5t20.5 -42.5q0 -29 -20.5 -47.5t-45.5 -18.5q-41 0 -72.5 -48t-55 -111.5t-37 -128t-19.5 -97.5q-10 -72 -15.5 -141.5t-5.5 -141.5q0 -70 4.5 -140.5t16.5 -141.5q4 -33 18.5 -96.5 t38 -128t55 -112.5t72.5 -48q25 0 45.5 -18.5t20.5 -43.5q0 -29 -20.5 -47t-45.5 -18q-72 0 -126 55t-92 132t-60.5 159t-30.5 137q-14 76 -19.5 155t-5.5 156z" />
<glyph unicode=")" horiz-adv-x="630" d="M141 -328q0 25 18.5 43.5t47.5 18.5q39 0 70.5 48t54 112.5t37 128t20.5 96.5q10 72 16.5 142.5t6.5 139.5q0 72 -6.5 141.5t-16.5 141.5q-6 33 -20.5 97.5t-37 128t-54 111.5t-70.5 48q-29 0 -47.5 18.5t-18.5 47.5q0 23 18.5 43t47.5 20q74 0 128 -56.5t91 -134 t58.5 -159.5t29.5 -133q14 -78 20.5 -156t6.5 -158q0 -78 -7.5 -156.5t-19.5 -154.5q-10 -55 -32.5 -137t-59.5 -159t-90 -132t-125 -55q-29 0 -47.5 18.5t-18.5 46.5z" />
<glyph unicode="*" horiz-adv-x="843" d="M141 709q0 33 27 53l164 112l-164 109q-27 20 -27 53q0 29 18.5 47.5t45.5 18.5q10 0 29.5 -10.5t43 -25.5t50 -33.5t49.5 -35.5v148q0 29 18.5 47t44.5 18q29 0 47.5 -18t18.5 -47v-156q23 16 48.5 34.5t48 33t41 24t28.5 9.5q29 0 47 -17.5t18 -46.5q0 -33 -28 -55 l-146 -99q25 -16 54.5 -33.5t56 -38t45 -41t18.5 -38.5q0 -29 -18.5 -47.5t-46.5 -18.5q-10 0 -28.5 9.5t-41 25t-48.5 32.5t-48 34v-154q0 -29 -18.5 -47t-47.5 -18q-27 0 -45 18t-18 47v146q-23 -16 -49.5 -34t-50 -33t-43 -25.5t-29.5 -10.5q-27 0 -45.5 18.5t-18.5 45.5 z" />
<glyph unicode="+" horiz-adv-x="909" d="M141 647q0 27 17.5 45.5t46.5 18.5h198v198q0 29 18.5 47.5t47.5 18.5q27 0 45 -18.5t18 -47.5v-198h199q29 0 47.5 -18.5t18.5 -45.5q0 -25 -18.5 -45t-47.5 -20h-199v-199q0 -25 -18 -44.5t-45 -19.5q-29 0 -47.5 19.5t-18.5 44.5v199h-198q-29 0 -46.5 20.5 t-17.5 44.5z" />
<glyph unicode="," horiz-adv-x="397" d="M145 -113q0 14 6.5 33t14.5 37t15 33.5t9 27.5q-25 25 -24 58q0 31 25.5 56.5t56.5 25.5q33 0 55.5 -24.5t26.5 -53.5v-17q0 -25 -13.5 -62.5t-34 -72t-43 -60.5t-42.5 -26t-36 13.5t-16 31.5z" />
<glyph unicode="-" horiz-adv-x="743" d="M141 653q0 27 18.5 45.5t47.5 18.5h375q27 0 44 -18.5t17 -45.5q0 -25 -17.5 -45t-43.5 -20h-375q-29 0 -47.5 20.5t-18.5 44.5z" />
<glyph unicode="." horiz-adv-x="376" d="M141 74q0 33 23.5 56.5t58.5 23.5q31 0 55.5 -24t24.5 -56q0 -35 -24.5 -58.5t-55.5 -23.5q-35 0 -58.5 23.5t-23.5 58.5z" />
<glyph unicode="/" horiz-adv-x="700" d="M141 41q0 2 13.5 48t35 121t49 169t58.5 194.5t60.5 198.5t54 180t42 140.5t23.5 76.5q4 23 21.5 37.5t40.5 14.5q29 0 47 -18.5t18 -45.5q0 -4 -13 -50t-34.5 -120t-50.5 -169t-58.5 -194.5t-59.5 -198.5t-54.5 -180t-42 -139.5t-23.5 -76.5q-6 -23 -23 -37.5t-40 -14.5 q-27 0 -45.5 18.5t-18.5 45.5z" />
<glyph unicode="0" horiz-adv-x="1110" d="M131 616q0 92 23.5 204t76 208t133 161.5t197.5 65.5t198 -64.5t133 -161.5t75.5 -208.5t23.5 -204.5q0 -94 -23.5 -205.5t-75.5 -209t-134 -162t-197 -64.5t-196.5 64.5t-134 162t-76 209t-23.5 205.5zM260 616q0 -72 16.5 -159.5t52.5 -166.5t93 -132.5t139 -53.5 q80 0 137.5 53.5t94 131.5t53 167t16.5 160q0 68 -18.5 157t-55 167t-94 132t-133.5 54q-78 0 -134 -54t-93 -132t-55.5 -167t-18.5 -157z" />
<glyph unicode="1" horiz-adv-x="866" d="M268 1057q0 14 6.5 28.5t20.5 24.5q10 8 35.5 26.5t54.5 37t55.5 33t38.5 14.5q29 0 47.5 -18.5t18.5 -45.5v-1026h39q29 0 47 -18.5t18 -46.5q0 -23 -18.5 -43.5t-46.5 -20.5h-207q-27 0 -45.5 20.5t-18.5 43.5q0 29 18.5 47t45.5 18h39v901q-25 -16 -48.5 -28.5 t-35.5 -12.5q-29 0 -46.5 18.5t-17.5 47.5z" />
<glyph unicode="2" horiz-adv-x="962" d="M131 877q0 76 27.5 142t77 116.5t116 79t142.5 28.5t141 -28.5t114.5 -79t78 -117t28.5 -141.5q0 -115 -40 -193t-100.5 -135t-132 -100t-137 -88.5t-113.5 -100.5t-63 -133h508q29 0 47.5 -18.5t18.5 -45.5q0 -25 -18.5 -45t-47.5 -20l-602 2l-20 16l-19 23l-2 24 q0 119 44 198t109.5 137.5t141.5 103.5t141.5 95t109.5 114.5t44 160.5q0 49 -17.5 93.5t-48 77t-73.5 52t-92 19.5t-92.5 -19.5t-74 -51t-49 -74.5t-18.5 -92q0 -29 -17.5 -47.5t-45.5 -18.5q-29 0 -47.5 18.5t-18.5 47.5z" />
<glyph unicode="3" horiz-adv-x="1009" d="M131 346q0 27 18.5 45.5t45.5 18.5q29 0 47 -18.5t18 -45.5q0 -53 20.5 -97t55.5 -78t81 -52.5t97 -18.5t97 18.5t82 52.5t56.5 78t20.5 97q0 51 -20.5 96t-56.5 78t-82 51.5t-97 18.5q-27 0 -45 18.5t-18 44.5q0 29 18 47.5t47 18.5q43 0 83 14.5t71.5 41t51 63 t19.5 82.5q0 45 -19.5 81.5t-51 63.5t-71.5 41t-83 14t-84 -14t-72.5 -41t-51 -63.5t-19.5 -81.5q0 -29 -18.5 -46.5t-47.5 -17.5q-27 0 -45 17.5t-18 46.5q0 74 29.5 134t78.5 103t113.5 67.5t134.5 24.5q68 0 132.5 -24.5t113.5 -67.5t78.5 -103t29.5 -134 q0 -84 -38.5 -152t-104.5 -113q78 -51 125 -132t47 -177q0 -80 -30.5 -147.5t-83 -118.5t-123 -80t-148.5 -29t-147.5 29t-121.5 80t-83 118.5t-31 147.5z" />
<glyph unicode="4" horiz-adv-x="983" d="M131 651l92 537q4 23 21.5 38t42.5 15q27 0 46 -17.5t19 -47.5v-9l-80 -462h336v473q0 29 18.5 46t45.5 17q25 0 45 -17.5t20 -45.5v-473h72q29 0 47 -18.5t18 -47.5q0 -25 -18 -44.5t-47 -19.5h-72v-516q0 -29 -20.5 -47t-44.5 -18q-27 0 -45.5 18.5t-18.5 46.5v516 h-413q-27 0 -45.5 20.5t-18.5 55.5z" />
<glyph unicode="5" horiz-adv-x="972" d="M129 381v10v31.5t6 32t20.5 24.5t43.5 10t44 -22.5t15 -44.5q0 -6 -1 -12.5t-1 -10.5v-18q0 -53 16.5 -102.5t48 -87t75.5 -60t100 -22.5q57 0 102 29.5t74.5 75.5t45 101.5t15.5 108.5q0 51 -15.5 107.5t-45 103.5t-74.5 76.5t-102 29.5q-59 0 -113.5 -27.5t-99.5 -70.5 q-18 -18 -45 -18h-9h-8q-27 0 -47 17t-20 46v6l53 461q4 25 21.5 41t43.5 16h496q25 0 45.5 -18t20.5 -47q0 -27 -20.5 -45.5t-45.5 -18.5h-438q-4 -41 -8.5 -70.5t-8.5 -59t-8 -61.5t-8 -77q47 25 98.5 40t100.5 15q88 0 156.5 -41t114.5 -105.5t70.5 -144t24.5 -155.5 q0 -78 -24.5 -157t-70.5 -142.5t-114.5 -104t-156.5 -40.5q-84 0 -152 33.5t-115 89t-73.5 128t-26.5 150.5z" />
<glyph unicode="6" horiz-adv-x="1013" d="M160 434q0 119 34.5 249t100 243.5t159 199.5t208.5 119h10q25 0 44 -18.5t19 -44.5q0 -23 -6 -34t-15 -16.5t-22.5 -9.5t-27.5 -12q-57 -23 -106.5 -62.5t-90.5 -91t-73 -110t-52 -117.5q90 66 207 66q84 0 154.5 -34t122 -90.5t80 -130t28.5 -153.5t-28.5 -153.5 t-80 -130t-122 -89t-154.5 -32.5q-92 0 -165 36.5t-123 100t-75.5 144.5t-25.5 171zM293 387q0 -53 19.5 -103.5t53 -89t81 -61t102.5 -22.5t102 22.5t81 61t53.5 89t19.5 103.5q0 55 -19.5 105.5t-53.5 88t-81 61.5t-102 24t-102.5 -24t-81 -61.5t-53 -88t-19.5 -105.5z " />
<glyph unicode="7" horiz-adv-x="962" d="M131 1147q0 25 18.5 45t45.5 20h598q27 0 45 -20.5t18 -44.5q0 -6 -27.5 -82t-69.5 -188.5t-93.5 -246.5t-96.5 -253l-131 -346v2q-8 -23 -26.5 -34t-34.5 -11q-29 0 -47.5 18.5t-18.5 46.5q0 4 22.5 67.5t58.5 160t80 214t87 230.5t79 209t56 149h-497q-29 0 -47.5 19.5 t-18.5 44.5z" />
<glyph unicode="8" horiz-adv-x="1009" d="M131 350q0 102 43 183t127 131q-63 45 -102 112.5t-39 149.5q0 72 29.5 132t78.5 104t113.5 68.5t134.5 24.5q68 0 132.5 -24.5t113.5 -68.5t78.5 -104t29.5 -132q0 -82 -38.5 -150.5t-102.5 -113.5q78 -49 124 -131t46 -181q0 -78 -30.5 -146.5t-83 -118.5t-123 -79 t-148.5 -29t-147.5 29t-121.5 79t-83 118.5t-31 146.5zM260 350q0 -51 20.5 -96t55.5 -78t81 -51.5t97 -18.5t97 18.5t82 51.5t56.5 78t20.5 96t-20.5 96.5t-56.5 79t-82 52t-97 18.5t-97 -18.5t-81 -52t-55.5 -79t-20.5 -96.5zM289 926q0 -45 19.5 -82t51 -63.5t72.5 -41 t84 -14.5t83 14.5t71.5 41t51 63.5t19.5 82t-19.5 81.5t-51 63.5t-71.5 41t-83 14t-84 -14t-72.5 -41t-51 -63.5t-19.5 -81.5z" />
<glyph unicode="9" horiz-adv-x="1009" d="M131 872q0 78 31 146.5t83 119t121.5 79t147.5 28.5q84 0 154.5 -30.5t122 -84t80 -125t28.5 -153.5q0 -102 -25.5 -205.5t-70.5 -201t-104.5 -186.5t-129.5 -163q-39 -41 -77.5 -77.5t-73.5 -36.5q-29 0 -47.5 18t-18.5 45q0 16 5 26.5t16 20.5l102 96 q72 78 131.5 170.5t100.5 190.5q-43 -27 -91.5 -38t-101.5 -11q-78 0 -147.5 28.5t-121.5 78.5t-83 118t-31 147zM260 872q0 -53 20.5 -98t55.5 -77.5t81 -51t97 -18.5t97 18.5t82 51t56.5 77.5t20.5 98q0 51 -20.5 96.5t-56.5 77t-82 50t-97 18.5t-97 -18.5t-81 -50 t-55.5 -76.5t-20.5 -97z" />
<glyph unicode=":" horiz-adv-x="376" d="M141 72q0 35 23.5 58.5t58.5 23.5q31 0 55.5 -24t24.5 -58q0 -31 -24.5 -56.5t-55.5 -25.5q-35 0 -58.5 25.5t-23.5 56.5zM141 614q0 33 23.5 56.5t58.5 23.5q31 0 55.5 -23.5t24.5 -56.5q0 -35 -24.5 -58.5t-55.5 -23.5q-35 0 -58.5 24t-23.5 58z" />
<glyph unicode=";" horiz-adv-x="397" d="M141 -84q10 18 19 39q8 16 13 33.5t9 29.5q-25 25 -24 58q0 31 25.5 56.5t56.5 25.5q33 0 55 -24.5t27 -53.5v-17q0 -18 -10.5 -55t-27 -73.5t-38 -63.5t-43.5 -27q-27 0 -44.5 20.5t-17.5 51.5zM158 614q0 33 25.5 56.5t56.5 23.5t56.5 -23.5t25.5 -56.5 q0 -35 -25.5 -58.5t-56.5 -23.5t-56.5 24t-25.5 58z" />
<glyph unicode="&#x3c;" horiz-adv-x="788" d="M139 655q0 33 27 54l418 278q6 4 16 8t21 4q27 0 45 -20.5t18 -44.5q0 -33 -29 -53l-342 -228q86 -59 171 -115.5t171 -115.5q14 -10 21.5 -24.5t7.5 -26.5q0 -29 -18 -47.5t-45 -18.5q-10 0 -17.5 1t-19.5 9l-416 279q-20 12 -24.5 28.5t-4.5 32.5z" />
<glyph unicode="=" horiz-adv-x="909" d="M141 559q0 29 17.5 47.5t46.5 18.5h526q29 0 47.5 -18.5t18.5 -47.5q0 -25 -18.5 -44t-47.5 -19h-526q-29 0 -46.5 19.5t-17.5 43.5zM141 758q0 25 17.5 45t46.5 20h526q29 0 47.5 -20.5t18.5 -44.5q0 -27 -18.5 -45.5t-47.5 -18.5h-526q-29 0 -46.5 18.5t-17.5 45.5z " />
<glyph unicode="&#x3e;" horiz-adv-x="788" d="M141 371q0 14 7.5 28.5t21.5 22.5q47 31 89 59.5t83 56t83 55.5t89 60l-346 228q-27 20 -27 53q0 25 18.5 45t47.5 20q20 0 37 -12q100 -66 206.5 -138.5t206.5 -139.5q29 -16 29 -54q0 -16 -5 -32.5t-24 -28.5l-413 -279q-12 -8 -19.5 -9t-17.5 -1q-29 0 -47.5 18.5 t-18.5 47.5z" />
<glyph unicode="?" horiz-adv-x="987" d="M141 889q0 82 28 147.5t77 111.5t116.5 71.5t149.5 25.5q74 0 139.5 -23.5t113.5 -68.5t76.5 -107.5t28.5 -138.5q0 -66 -17 -115t-47 -87.5t-70 -70.5t-83 -65l-22 -18q-33 -27 -54.5 -51.5t-36 -52t-19.5 -60.5t-5 -76v-8q0 -29 -8 -55.5t-55 -26.5q-43 0 -54.5 25.5 t-11.5 50.5v14q0 111 40 192t126 150q35 29 68.5 53.5t60.5 53t43 63.5t16 82q0 49 -18 88t-50 66.5t-74 42t-89 14.5q-102 0 -171 -57.5t-69 -161.5q0 -25 -13 -47.5t-48 -22.5q-29 0 -48.5 16.5t-19.5 45.5zM367 72q0 35 25.5 58.5t56.5 23.5q35 0 58 -24t23 -58 q0 -31 -23.5 -56.5t-57.5 -25.5q-31 0 -56.5 25.5t-25.5 56.5z" />
<glyph unicode="@" horiz-adv-x="1761" d="M141 371q0 158 60.5 308t167 267t253 188.5t318.5 71.5q141 0 260 -49t205 -135t134 -205t48 -258q0 -98 -24.5 -205.5t-77.5 -201t-136 -160t-198 -84.5l2 2q-12 -4 -19.5 -4h-13.5q-57 0 -85.5 34.5t-28.5 88.5v28q-47 -37 -105.5 -59.5t-122.5 -22.5q-68 0 -123 26 t-95 69t-61.5 101t-21.5 124q0 76 31 149.5t83 132t122.5 93.5t150.5 35q66 0 122 -25t97 -72l4 31q4 31 22.5 43t47.5 12q25 0 41 -25.5t16 -47.5l-79 -582l-2 -2q80 20 141 75.5t102 129t61.5 156.5t20.5 161q0 113 -39 207t-108.5 163.5t-163.5 108.5t-207 39 q-143 0 -266 -61.5t-212 -161.5t-140.5 -227t-51.5 -258q0 -133 47.5 -249t131 -200t197.5 -132t249 -48q121 0 229.5 42t180.5 134q18 27 51 27q27 0 45 -18.5t18 -45.5q0 -8 -1 -15t-7 -22q-39 -61 -100.5 -104t-132 -71.5t-144 -42t-141.5 -13.5q-160 0 -298 58.5 t-238.5 160.5t-158 241.5t-57.5 299.5zM606 295q0 -78 47 -134.5t125 -56.5q55 0 102.5 25t82 63.5t55 89t20.5 103.5q0 78 -47 134t-127 56q-53 0 -100 -24.5t-82 -63t-55.5 -90t-20.5 -102.5z" />
<glyph unicode="A" horiz-adv-x="987" d="M61 51q0 4 15.5 52.5t40 126t57.5 177t67.5 205t68.5 208t61.5 186.5t47 142t23.5 75q8 23 24.5 34t39.5 11q20 0 37.5 -11.5t25.5 -33.5q4 -18 22.5 -78t46.5 -143.5t61.5 -186t68.5 -206t67.5 -202t58.5 -176t41 -127t15 -53.5q0 -25 -20.5 -45t-44.5 -20 q-23 0 -40.5 12t-23.5 35l-135 416h-360q-35 -109 -69 -209.5t-69 -206.5q-16 -47 -61 -47q-29 0 -47.5 20.5t-18.5 44.5zM369 580h272l-135 419z" />
<glyph unicode="B" horiz-adv-x="944" d="M174 57v1133q0 25 18.5 45t47.5 20h262q68 0 123 -27.5t96 -73.5t63.5 -105.5t22.5 -122.5q0 -70 -28.5 -136.5t-76.5 -113.5q88 -47 137.5 -130t49.5 -188q0 -78 -31 -145.5t-82 -117.5t-119.5 -78.5t-144.5 -28.5h-270q-29 0 -48.5 23.5t-19.5 45.5zM305 119h207 q49 0 93 18.5t78 50t54.5 75.5t20.5 95q0 49 -20.5 93.5t-54.5 76t-78 50t-93 18.5h-207v-477zM305 727h195q39 0 71.5 16.5t56 44t36 63.5t12.5 75t-12.5 74.5t-36 63.5t-55 45t-70.5 17h-197v-399z" />
<glyph unicode="C" horiz-adv-x="985" d="M113 625q0 94 24.5 207.5t76.5 212t135 165t200 66.5q49 0 95 -17.5t87 -45t75 -64.5t60 -74q6 -8 15.5 -24.5t18.5 -35t16.5 -35.5t7.5 -28q0 -29 -20.5 -47t-45.5 -18q-23 0 -38 11t-23 28q-18 39 -42 77.5t-54.5 70.5t-68.5 51.5t-83 19.5q-53 0 -107 -37 q-55 -37 -93 -93.5t-61.5 -122t-33.5 -135t-10 -132.5q0 -70 18.5 -159t56 -169t95 -134t135.5 -54q45 0 83 19t68.5 51t54 71t42.5 78q8 16 23.5 26.5t37.5 10.5q25 0 45.5 -19.5t20.5 -44.5q0 -10 -7.5 -28.5t-16.5 -37t-18.5 -35t-15.5 -24.5q-27 -39 -60.5 -74.5 t-74.5 -63.5t-87 -44.5t-95 -16.5q-117 0 -200 66t-135 164t-76.5 210.5t-24.5 207.5z" />
<glyph unicode="D" horiz-adv-x="1009" d="M174 53v1133q0 23 19.5 45t48.5 22h278q82 0 144.5 -34.5t108.5 -91t76 -127t48 -141.5t26.5 -134t8.5 -104t-8.5 -104.5t-26.5 -133.5t-48 -139.5t-76 -126t-108.5 -91t-144.5 -34.5h-256q-12 -4 -24 -4q-27 0 -46.5 20.5t-19.5 44.5zM305 123h215q86 0 140.5 59.5 t85 140t43 165t12.5 133.5q0 33 -5 83t-17.5 105t-33 111.5t-51 101.5t-73.5 72.5t-101 27.5h-215v-999z" />
<glyph unicode="E" horiz-adv-x="876" d="M174 59v1129q0 25 18.5 45t47.5 20h518q29 0 47 -20.5t18 -44.5q0 -29 -18.5 -47.5t-46.5 -18.5h-453v-389h283q27 0 46 -20.5t19 -44.5q0 -29 -19.5 -47.5t-45.5 -18.5h-283v-477h453q29 0 47 -18.5t18 -47.5q0 -25 -18.5 -45t-46.5 -20h-518q-29 0 -47.5 20.5 t-18.5 44.5z" />
<glyph unicode="F" horiz-adv-x="876" d="M174 57v1129q0 29 18.5 47t47.5 18h518q29 0 47 -18.5t18 -46.5q0 -29 -18.5 -47.5t-46.5 -18.5h-453v-389h283q27 0 46 -18.5t19 -46.5q0 -29 -19.5 -47.5t-45.5 -18.5h-283v-543q0 -25 -19 -45t-46 -20q-29 0 -47.5 20.5t-18.5 44.5z" />
<glyph unicode="G" horiz-adv-x="1083" d="M113 629q0 94 23.5 206.5t75.5 211t135 165t202 66.5q49 0 95 -17.5t87 -45t75 -64.5t60 -74q4 -8 13.5 -24.5t18.5 -35t16.5 -35.5t7.5 -28q0 -25 -20.5 -45t-45.5 -20q-20 0 -35.5 11t-23.5 28l-17 35l-26 43q-35 53 -88.5 97t-116.5 44q-78 0 -136.5 -55.5t-96 -135 t-56 -169t-18.5 -158.5q0 -72 18.5 -161t56 -169t95 -134t137.5 -54q82 0 137 53t91 125.5t52.5 149.5t20.5 124h-207q-29 0 -47 18.5t-18 47.5q0 25 18 45t47 20h277q25 0 45 -20.5t20 -44.5q0 -94 -24.5 -208t-77 -212t-135 -163.5t-199.5 -65.5t-200 65.5t-135 163.5 t-76.5 212t-24.5 208z" />
<glyph unicode="H" horiz-adv-x="1001" d="M174 55v1135q0 29 18.5 47t47.5 18t47 -18t18 -47v-465h428v465q0 29 18.5 47t47.5 18t47 -18t18 -47v-1135q0 -25 -18.5 -45t-46.5 -20q-29 0 -47.5 20.5t-18.5 44.5v539h-428v-539q0 -25 -18 -45t-47 -20t-47.5 20.5t-18.5 44.5z" />
<glyph unicode="I" horiz-adv-x="630" d="M174 72q0 29 18.5 47t47.5 18h41v971h-41q-29 0 -47.5 18.5t-18.5 47.5q0 25 18.5 45t47.5 20h213q25 0 45 -20.5t20 -44.5q0 -29 -20.5 -47.5t-44.5 -18.5h-41v-971h41q25 0 45 -18.5t20 -46.5q0 -25 -20.5 -45.5t-44.5 -20.5h-213q-29 0 -47.5 20.5t-18.5 45.5z" />
<glyph unicode="J" horiz-adv-x="952" d="M51 330q0 25 18.5 45t45.5 20q29 0 47 -20.5t18 -44.5q0 -47 19.5 -87t51.5 -70t74 -46t87 -16q68 0 112.5 20.5t71.5 58t38 90t11 117.5v717h-88q-29 0 -47 18.5t-18 47.5t18 47t47 18h303q29 0 47.5 -18.5t18.5 -46.5q0 -29 -18.5 -47.5t-47.5 -18.5h-84v-65v-177v-475 q0 -92 -19.5 -168.5t-62.5 -131t-112.5 -85t-169.5 -30.5q-72 0 -137.5 26.5t-114.5 72.5t-79 110.5t-30 138.5z" />
<glyph unicode="K" horiz-adv-x="966" d="M174 57v1135q0 25 18.5 45t45.5 20q29 0 47 -20t18 -45v-457l479 496q19 26 52 26h2q29 0 47 -20t18 -45q0 -12 -6 -24.5t-14 -20.5l-373 -387l74 -115q33 -51 71.5 -113.5t78.5 -126t76 -124t64.5 -108.5t46 -81t17.5 -39q0 -25 -20.5 -45t-43.5 -20q-16 0 -31.5 9 t-25.5 21l-401 644q-29 -29 -54.5 -56.5t-56.5 -58.5v-490q0 -29 -18 -47t-47 -18q-27 0 -45.5 18.5t-18.5 46.5z" />
<glyph unicode="L" d="M174 66v1124q0 29 18.5 47t47.5 18q27 0 46 -18t19 -47v-1059h453q29 0 47 -20.5t18 -44.5q0 -29 -18.5 -47.5t-46.5 -18.5h-518q-29 0 -47.5 18.5t-18.5 47.5z" />
<glyph unicode="M" horiz-adv-x="1282" d="M174 53v1131q0 29 18.5 47t47.5 18q23 0 42 -16t25 -37v2l344 -938q86 236 174 473.5t174 472.5v-2q16 45 64 45q25 0 45 -18.5t20 -46.5v-1131q0 -29 -20.5 -47t-44.5 -18q-29 0 -47.5 18.5t-18.5 46.5v762q-72 -193 -140.5 -380t-137.5 -380q-4 -23 -22.5 -40 t-43.5 -17q-45 0 -61 47v-2q-45 123 -79 213t-64.5 174t-64.5 175t-79 214v-766q0 -29 -18 -47t-47 -18t-47.5 18.5t-18.5 46.5z" />
<glyph unicode="N" horiz-adv-x="1003" d="M174 53v1137q0 25 18.5 44t47.5 19q39 0 57 -34l438 -881v854q0 29 18.5 47t47.5 18t47 -18t18 -47v-1135q0 -25 -18.5 -45t-46.5 -20q-16 0 -31.5 10t-26.5 27q-59 119 -111 225t-104.5 210.5t-106.5 212t-116 230.5v-854q0 -29 -18.5 -47t-46.5 -18q-29 0 -47.5 18.5 t-18.5 46.5z" />
<glyph unicode="O" horiz-adv-x="1073" d="M113 625q0 94 23.5 206.5t75.5 211t135 165t202 66.5q117 0 199.5 -66.5t135 -165t77 -211t24.5 -206.5t-24.5 -208t-77 -212.5t-135 -164t-199.5 -65.5t-200 65.5t-135 164t-76.5 212t-24.5 208.5zM242 625q0 -72 17 -161t54 -169t95.5 -134.5t140.5 -54.5t140.5 54.5 t95 134.5t53 170t16.5 160t-18.5 158.5t-56.5 168.5t-95 135.5t-135 55.5t-136.5 -55.5t-96 -135.5t-56 -169t-18.5 -158z" />
<glyph unicode="P" horiz-adv-x="915" d="M176 53v1135q0 27 18.5 46t47.5 19h247q76 0 143.5 -28.5t119 -79.5t80 -119t28.5 -143q0 -76 -28.5 -143.5t-80 -118t-119 -79t-143.5 -28.5h-182v-461q0 -25 -18.5 -45t-46.5 -20q-29 0 -47.5 20.5t-18.5 44.5zM307 645h182q49 0 93.5 18.5t77 50t51 76t18.5 93.5 t-18.5 93t-51 76.5t-76.5 51t-94 18.5h-182v-477z" />
<glyph unicode="Q" horiz-adv-x="1073" d="M113 623q0 94 26.5 207.5t80.5 212t136 164t193 65.5t192.5 -66.5t136 -165t81 -211t26.5 -206.5q0 -109 -26.5 -224.5t-84.5 -212.5q12 -14 26.5 -34.5t28 -41t23 -38t9.5 -27.5q0 -29 -18.5 -47t-47.5 -18q-16 0 -31.5 7t-23.5 23l-54 70q-47 -47 -106 -77t-131 -30 q-117 0 -200 65.5t-135 164t-76.5 212t-24.5 208.5zM242 623q0 -72 17 -161t54 -169t95.5 -134.5t140.5 -54.5q47 0 87 23t73 55q-12 18 -28.5 41t-31 44.5t-25 40t-10.5 26.5q0 25 18.5 45t47.5 20q31 0 51 -26l53 -74q37 74 53.5 158t16.5 166q0 70 -18.5 158.5 t-56.5 168.5t-95 135.5t-135 55.5t-136.5 -55.5t-96 -135.5t-56 -169t-18.5 -158z" />
<glyph unicode="R" horiz-adv-x="903" d="M176 55v1125q0 29 18.5 47t47.5 18h247q76 0 143.5 -28.5t119 -79t80 -118t28.5 -142.5q0 -119 -57.5 -210.5t-167.5 -127.5l45 -88q31 -55 65.5 -121t64.5 -124.5t49.5 -99t19.5 -49.5q0 -29 -18.5 -47t-47.5 -18q-16 0 -32.5 10t-24.5 25l-254 481q-23 -2 -46.5 -2 h-45.5q-16 0 -33 1t-33 1h-37v-453q0 -29 -18.5 -47t-46.5 -18q-29 0 -47.5 18.5t-18.5 46.5zM307 641h182q49 0 93.5 18.5t77 50t52 74.5t19.5 93q0 49 -19.5 93t-52 75.5t-76.5 50t-94 18.5h-182v-473z" />
<glyph unicode="S" horiz-adv-x="989" d="M125 354q0 29 20.5 47.5t44.5 18.5q29 0 46.5 -17.5t17.5 -44.5q0 -53 17.5 -99t51 -81t81 -55.5t106.5 -20.5q104 0 171 58.5t67 163.5q0 86 -46.5 136t-116 84t-149.5 60.5t-149.5 66.5t-115.5 102.5t-46 166.5q0 72 27.5 132.5t75.5 104.5t110.5 68.5t132.5 24.5 q78 0 143.5 -26.5t112.5 -74t73.5 -112t26.5 -142.5q0 -29 -19.5 -47t-45.5 -18q-35 0 -47.5 16.5t-16.5 38.5l-2 2q-2 4 -2 17.5v19.5l-6 37q-23 74 -77 115t-132 43h-8q-43 0 -82 -14.5t-69.5 -41t-48 -62.5t-17.5 -81q0 -49 22.5 -85t58.5 -61.5t81 -43t90 -31.5 q68 -23 135.5 -56.5t119.5 -80.5t85 -110.5t33 -147.5q0 -80 -28 -145.5t-77 -112t-116.5 -71t-145.5 -24.5q-86 0 -156.5 28t-122 79t-80 120.5t-28.5 155.5z" />
<glyph unicode="T" horiz-adv-x="811" d="M61 1174q0 29 18.5 47t47.5 18h594q27 0 46 -18.5t19 -46.5q0 -29 -19 -47.5t-46 -18.5h-232v-1047q0 -29 -18 -47t-47 -18t-47.5 18.5t-18.5 46.5v1047h-231q-29 0 -47.5 18.5t-18.5 47.5z" />
<glyph unicode="U" horiz-adv-x="1099" d="M174 344v850q0 25 18.5 45.5t47.5 20.5q27 0 46 -20.5t19 -45.5v-850q0 -117 74 -176t186 -59q115 0 187.5 58t72.5 177v850q0 25 20.5 45.5t45.5 20.5q29 0 47 -20.5t18 -45.5v-850q0 -90 -28.5 -157.5t-80.5 -114.5t-124 -71t-158 -24q-84 0 -155.5 25t-124 72 t-82 114.5t-29.5 155.5z" />
<glyph unicode="V" horiz-adv-x="987" d="M61 1188q0 27 18.5 46t47.5 19q23 0 41 -13t22 -38l316 -969q78 244 156.5 488t158.5 487q6 23 23.5 34t40.5 11q25 0 45 -19.5t20 -45.5q0 -12 -20.5 -81t-54 -171t-75.5 -228t-84 -253t-81 -245t-66 -204q-6 -23 -25.5 -34t-37.5 -11q-20 0 -38.5 11.5t-25.5 33.5 q-6 16 -24.5 74.5t-47 144.5t-61.5 189.5t-67.5 209t-67.5 206t-57.5 179t-40 128t-15.5 51.5z" />
<glyph unicode="W" horiz-adv-x="1581" d="M61 1190q0 25 18.5 44t47.5 19q20 0 37.5 -14t25.5 -35l267 -940l264 940q6 25 24.5 37t38.5 12t38 -12t26 -37l266 -940q66 236 133.5 470.5t132.5 469.5v-4q4 23 22.5 38t41.5 15q27 0 45 -19.5t18 -43.5q0 -4 -13 -53.5t-34.5 -128t-49.5 -179t-58.5 -206t-59 -209 t-53.5 -188.5t-41 -143t-20 -75l2 6q-4 -23 -22.5 -38t-43.5 -15q-20 0 -37.5 12.5t-25.5 34.5l-267 942l-264 -942q-8 -23 -25.5 -35t-37.5 -12q-23 0 -40.5 12.5t-23.5 34.5q-4 16 -21.5 74.5t-42 143.5t-53 188.5t-58.5 209t-58.5 206t-50 179t-35 128t-13.5 53.5z" />
<glyph unicode="X" horiz-adv-x="851" d="M61 61q0 8 17.5 44t45.5 87.5t61.5 113t66.5 119.5t61.5 108.5t46.5 80.5l7 9q-16 31 -46 82t-64 111.5t-68.5 122.5t-63.5 114.5t-46.5 88.5t-17.5 42q0 29 18.5 47t47.5 18q41 0 59 -39l-4 7q37 -66 68 -121.5t61.5 -109.5t62.5 -109.5t68 -120.5l258 461q19 32 58 32 q25 0 45 -18.5t20 -46.5q0 -10 -29.5 -65.5t-70.5 -131.5t-88 -156.5t-80 -140.5l2 2q-10 -23 -19.5 -35t-21.5 -34q16 -29 31.5 -55.5t32.5 -55.5h-2q35 -63 77.5 -136t79.5 -138.5t62.5 -114.5t25.5 -62q0 -29 -20.5 -47t-44.5 -18q-18 0 -32.5 8t-25.5 19l-258 466 q-66 -117 -131 -231.5t-129 -228.5l2 2q-8 -14 -23.5 -24.5t-33.5 -10.5q-29 0 -47.5 18.5t-18.5 46.5z" />
<glyph unicode="Y" horiz-adv-x="839" d="M61 1188q0 25 18.5 45t47.5 20q37 0 57 -36q35 -68 66 -125.5t60.5 -111.5t60 -110.5t65.5 -124.5q55 111 124 232t126 235q20 41 59 41q29 0 47.5 -20.5t18.5 -44.5q0 -10 -27.5 -65.5t-67.5 -132.5t-84 -159.5t-79 -148.5l-51 -96v-529q0 -29 -18.5 -47t-47.5 -18 t-47 18.5t-18 46.5v531q-4 8 -11.5 17t-11.5 20v-2q-20 35 -49 89t-60.5 114.5t-63.5 122t-57.5 112.5t-41 86t-15.5 41z" />
<glyph unicode="Z" horiz-adv-x="935" d="M102 76q0 6 30 62.5t78 141.5t109.5 191.5t123 214t117.5 204.5t97 167l29 49h-498q-29 0 -47 20.5t-18 44.5q0 29 18.5 47.5t46.5 18.5h613q29 0 47 -18.5t18 -47.5q0 -6 -29.5 -61t-77.5 -141t-108.5 -191.5t-123 -213t-120 -206t-98.5 -168.5l-28 -49h499 q29 0 47.5 -20.5t18.5 -44.5q0 -29 -18.5 -47.5t-47.5 -18.5h-612q-29 0 -47.5 18.5t-18.5 47.5z" />
<glyph unicode="[" horiz-adv-x="544" d="M102 -315v1466q0 29 18.5 47.5t45.5 18.5h262q29 0 46.5 -18.5t17.5 -47.5q0 -25 -17.5 -44.5t-46.5 -19.5h-197v-1337h197q29 0 46.5 -20.5t17.5 -44.5q0 -27 -17.5 -45.5t-46.5 -18.5h-262q-27 0 -45.5 18.5t-18.5 45.5z" />
<glyph unicode="\" horiz-adv-x="622" d="M102 41q0 2 13.5 48t35 121t50 169t58.5 194.5t59.5 198.5t54 180t42 140.5t23.5 76.5q6 23 22.5 37.5t41.5 14.5t44 -18.5t19 -45.5q0 -4 -13 -51t-35.5 -122t-51.5 -171t-59.5 -198.5t-60.5 -202t-53.5 -180t-41 -137t-21.5 -72.5q-6 -23 -24.5 -34.5t-36.5 -11.5 q-29 0 -47.5 18.5t-18.5 45.5z" />
<glyph unicode="]" horiz-adv-x="544" d="M102 -315q0 25 18.5 45t45.5 20h199v1337h-199q-27 0 -45.5 19.5t-18.5 44.5q0 29 18.5 47.5t45.5 18.5h262q29 0 46.5 -18.5t17.5 -47.5v-1466q0 -27 -17.5 -45.5t-46.5 -18.5h-262q-27 0 -45.5 18.5t-18.5 45.5z" />
<glyph unicode="^" horiz-adv-x="696" d="M102 713q0 6 13.5 38.5t35 77.5t46 98.5t47 100.5t40 83t23.5 46q16 35 62 35q20 0 34.5 -7t24.5 -28q6 -10 23.5 -46t40 -83t47 -100.5t46 -98.5t35 -77.5t13.5 -38.5q0 -27 -18.5 -45.5t-45.5 -18.5q-37 0 -57 35l-143 301l-146 -301q-6 -16 -21.5 -25.5t-33.5 -9.5 q-29 0 -47.5 18.5t-18.5 45.5z" />
<glyph unicode="_" horiz-adv-x="1062" d="M141 0h799v-102h-799v102z" />
<glyph unicode="`" horiz-adv-x="528" d="M141 1204q0 20 21.5 35.5t48.5 15.5q31 0 55 -20l178 -131q27 -14 27 -41q0 -18 -20.5 -34.5t-49.5 -16.5t-49 18l-190 139q-20 14 -21 35z" />
<glyph unicode="a" horiz-adv-x="909" d="M92 344q0 70 25.5 136.5t72 117.5t108.5 82t138 31q63 0 121.5 -24.5t106.5 -65.5v14q0 25 18 45t45 20q29 0 47.5 -20.5t18.5 -44.5v-578q0 -29 -18.5 -47t-47.5 -18q-27 0 -45 18.5t-18 46.5v9q-47 -41 -105.5 -66t-122.5 -25q-76 0 -138 31t-108.5 82t-72 117.5 t-25.5 138.5zM221 344q0 -47 16.5 -90t45 -77t67.5 -53.5t86 -19.5t87 19.5t67.5 53.5t43 77t15.5 90q0 45 -15.5 88t-43 77t-67.5 53.5t-87 19.5t-86 -19.5t-67.5 -53.5t-45 -77t-16.5 -88z" />
<glyph unicode="b" horiz-adv-x="909" d="M143 51v1112q0 23 18.5 43.5t45.5 20.5q29 0 47 -20.5t18 -43.5v-547q45 39 106 65t122 26q76 0 138 -31t108.5 -82t72 -117.5t25.5 -136.5q0 -72 -25.5 -138.5t-72 -117.5t-109 -82t-137.5 -31q-66 0 -123.5 26t-104.5 66v-12q0 -25 -18 -44t-47 -19q-27 0 -45.5 19.5 t-18.5 43.5zM285 340q0 -47 15 -90t44 -76t69 -53.5t87 -20.5t86 20.5t67.5 53.5t45 76t16.5 90q0 45 -16.5 88t-45 76t-67.5 53.5t-86 20.5t-87 -20.5t-69 -53.5t-44 -76t-15 -88z" />
<glyph unicode="c" horiz-adv-x="782" d="M92 344q0 70 25.5 136.5t70.5 117.5t107.5 82t138.5 31q45 0 96.5 -16.5t95.5 -44t73.5 -62.5t29.5 -72q0 -29 -18.5 -47t-46.5 -18q-12 0 -26.5 5t-23.5 17q-29 49 -77 79t-103 30q-47 0 -86 -19.5t-67.5 -53.5t-44 -77t-15.5 -88q0 -47 15.5 -90t44 -77t67.5 -53.5 t86 -19.5q51 0 100.5 27t71.5 72v-2q20 39 60 39q29 0 48 -18.5t19 -47.5q0 -20 -12 -35q-47 -74 -121 -119t-166 -45q-76 0 -138.5 31t-107.5 82t-70.5 117.5t-25.5 138.5z" />
<glyph unicode="d" horiz-adv-x="909" d="M92 342q0 70 25.5 136.5t72 117.5t108.5 82t138 31q70 0 125 -21.5t103 -69.5v547q0 23 18 43.5t45 20.5q29 0 47.5 -20.5t18.5 -43.5v-1110q0 -29 -18.5 -47t-47.5 -18q-27 0 -45 18.5t-18 46.5v8q-47 -41 -105.5 -65.5t-122.5 -24.5q-76 0 -138 31t-108.5 82t-72 117.5 t-25.5 138.5zM221 342q0 -47 16.5 -90t45 -77t67.5 -53.5t86 -19.5t87 19.5t67.5 53.5t43 77t15.5 90q0 45 -15.5 88t-43 77t-67.5 53.5t-87 19.5t-86 -19.5t-67.5 -53.5t-45 -77t-16.5 -88z" />
<glyph unicode="e" d="M92 344q0 70 25.5 136.5t72 117.5t108.5 82t138 31t138.5 -31t108.5 -82t71.5 -117.5t25.5 -136.5q0 -29 -19.5 -47t-45.5 -18h-484q18 -74 72.5 -124.5t132.5 -50.5q119 0 187 95q25 31 53 30q29 0 47 -18t18 -45q0 -10 -3 -18.5t-7 -14.5q-45 -80 -126 -119t-169 -39 q-76 0 -138 31t-108.5 82t-72 117.5t-25.5 138.5zM231 408h410q-18 72 -72.5 123t-132.5 51q-76 0 -130 -51.5t-75 -122.5z" />
<glyph unicode="f" horiz-adv-x="679" d="M61 659q0 29 18.5 47.5t45.5 18.5h84v270q0 117 67.5 176.5t180.5 59.5q29 0 64.5 -9.5t70.5 -25.5t63.5 -38.5t44.5 -49.5v2q4 -10 7.5 -16.5t3.5 -22.5q0 -25 -18.5 -44t-45.5 -19t-57 30v-2q-20 20 -52 43t-79 23t-84 -22.5t-37 -71.5v-283h154q25 0 44 -18.5 t19 -47.5q0 -27 -19.5 -45t-43.5 -18h-154v-545q0 -25 -18.5 -44t-47.5 -19q-27 0 -45 19.5t-18 43.5v545h-84q-27 0 -45.5 18.5t-18.5 44.5z" />
<glyph unicode="g" horiz-adv-x="899" d="M92 346q0 70 25.5 136.5t72 117.5t108.5 82t138 31q61 0 116.5 -22.5t100.5 -61.5v4q0 29 20.5 47t45.5 18q27 0 45 -18t18 -47v-758q0 -45 -24.5 -85t-61.5 -71.5t-81 -53t-83 -30.5v3q-25 -6 -46 -7.5t-37 -1.5q-31 0 -81.5 10.5t-97.5 30t-80.5 47t-33.5 60.5 q0 27 19.5 45t43.5 18q14 0 32.5 -13t45.5 -28.5t63.5 -29t88.5 -13.5q25 0 57.5 5.5t63 18.5t54 35.5t29.5 59.5v186q-90 -84 -217 -84q-76 0 -138 31t-108.5 82t-72 117.5t-25.5 138.5zM221 346q0 -47 16.5 -90t45 -76t67.5 -53.5t86 -20.5t87 20.5t67.5 53.5t43 76 t15.5 90q0 45 -15.5 88t-43 77t-67.5 53.5t-87 19.5t-86 -19.5t-67.5 -53.5t-45 -77t-16.5 -88z" />
<glyph unicode="h" horiz-adv-x="847" d="M143 53v1110q0 23 18.5 43.5t45.5 20.5q29 0 47 -20.5t18 -43.5v-524q37 31 84.5 50.5t100.5 19.5q68 0 120 -27t88.5 -72t55 -101t18.5 -118v-338q0 -29 -20.5 -47t-44.5 -18q-27 0 -45.5 18.5t-18.5 46.5v338q0 35 -9 69t-28.5 60.5t-48 43t-67.5 16.5 q-104 0 -144.5 -65.5t-40.5 -182.5v-279q0 -29 -18 -47t-47 -18q-27 0 -45.5 18.5t-18.5 46.5z" />
<glyph unicode="i" horiz-adv-x="380" d="M143 842q0 35 23.5 58.5t58.5 23.5q31 0 55.5 -23.5t24.5 -58.5q0 -33 -24.5 -56.5t-55.5 -23.5q-35 0 -58.5 23.5t-23.5 56.5zM160 53v576q0 25 18 45t47 20q23 0 43.5 -20.5t20.5 -44.5v-576q0 -25 -20.5 -45t-43.5 -20q-29 0 -47 20.5t-18 44.5z" />
<glyph unicode="j" horiz-adv-x="372" d="M-41 -303q0 31 16.5 43t40 18t47 11.5t39.5 21.5v-2q23 27 31 61.5t8 69.5v709q0 25 18.5 45t47.5 20q23 0 43 -20.5t20 -44.5v-715q0 -55 -15 -106.5t-46 -90.5t-77 -62.5t-107 -23.5q-25 0 -45.5 18.5t-20.5 47.5zM125 842q0 35 23.5 58.5t58.5 23.5q33 0 56.5 -23.5 t23.5 -58.5q0 -33 -23.5 -56.5t-56.5 -23.5q-35 0 -58.5 23.5t-23.5 56.5z" />
<glyph unicode="k" horiz-adv-x="704" d="M143 51v1112q0 23 18.5 43.5t47.5 20.5t46 -20.5t17 -43.5v-714l295 239q8 6 20.5 11.5t20.5 5.5q25 0 45.5 -19.5t20.5 -44.5q0 -23 -26.5 -52.5t-63.5 -61t-78 -61.5t-68 -52l238 -328q6 -12 6 -35q0 -29 -17.5 -46t-46.5 -17q-16 0 -30.5 7t-22.5 19l-227 318l-66 -51 v-230q0 -25 -17 -44t-46 -19t-47.5 19.5t-18.5 43.5z" />
<glyph unicode="l" horiz-adv-x="344" d="M143 51v1112q0 23 18.5 43.5t47.5 20.5t46 -20.5t17 -43.5v-1112q0 -25 -17 -44t-46 -19t-47.5 19.5t-18.5 43.5z" />
<glyph unicode="m" horiz-adv-x="1349" d="M143 53v580q0 29 17.5 47t46.5 18q25 0 43 -16t20 -41q80 68 185 68q74 0 132 -33t95 -92q41 57 102.5 91t135.5 34q68 0 120 -27t88.5 -71t55 -100t18.5 -118v-340q0 -29 -20.5 -47t-42.5 -18q-29 0 -47.5 18.5t-18.5 46.5v340q0 35 -9 69t-28.5 59.5t-48.5 42t-67 16.5 q-49 0 -84 -26t-56.5 -63.5t-32 -85t-10.5 -90.5v-262q0 -29 -19.5 -47t-43.5 -18q-29 0 -47.5 18.5t-18.5 46.5v340q0 35 -9 69t-28.5 59.5t-48 42t-67.5 16.5q-53 0 -88 -20.5t-56.5 -57.5t-31 -86t-9.5 -107v-256q0 -29 -17 -47t-46 -18t-46.5 18.5t-17.5 46.5z" />
<glyph unicode="n" d="M143 55v580q0 29 18.5 47t45.5 18q25 0 43 -16t22 -39q37 31 83.5 49.5t99.5 18.5q68 0 120 -27t88.5 -72t55 -101t18.5 -118v-338q0 -29 -20.5 -47t-44.5 -18q-27 0 -45.5 18.5t-18.5 46.5v338q0 37 -9 71t-28.5 59.5t-48 42t-67.5 16.5q-49 0 -84 -21.5t-56.5 -58.5 t-32 -85t-10.5 -100v-264q0 -29 -18 -47t-47 -18q-27 0 -45.5 18.5t-18.5 46.5z" />
<glyph unicode="o" d="M92 346q0 70 25.5 136.5t72 117.5t108.5 82t138 31t138.5 -31t108.5 -82t71.5 -117.5t25.5 -136.5q0 -72 -25.5 -138.5t-71.5 -117.5t-108.5 -82t-138.5 -31t-138 31t-108.5 82t-72 117.5t-25.5 138.5zM221 346q0 -47 16.5 -90t45 -77t67.5 -53.5t86 -19.5t87 19.5 t67.5 53.5t43 77t15.5 90q0 45 -15.5 88t-43 76t-67.5 52.5t-87 19.5t-86 -19.5t-67.5 -52.5t-45 -76t-16.5 -88z" />
<glyph unicode="p" horiz-adv-x="909" d="M143 -309v944q0 25 18.5 45t45.5 20q29 0 47 -20.5t18 -44.5v-14q45 39 106 64.5t122 25.5q76 0 138 -31t108.5 -82t72 -117.5t25.5 -136.5q0 -72 -25.5 -138.5t-72 -117.5t-109 -82t-137.5 -31q-66 0 -123.5 25t-104.5 66v-375q0 -29 -18 -46.5t-47 -17.5 q-27 0 -45.5 17.5t-18.5 46.5zM285 344q0 -47 15 -90t44 -77t69 -53.5t87 -19.5t86 19.5t67.5 53.5t45 77t16.5 90q0 45 -16.5 88t-45 77t-67.5 53.5t-86 19.5t-87 -19.5t-69 -53.5t-44 -77t-15 -88z" />
<glyph unicode="q" horiz-adv-x="909" d="M92 344q0 70 25.5 136.5t72 117.5t108.5 82t138 31q63 0 121.5 -24.5t106.5 -65.5v14q0 25 18 45t45 20q29 0 47.5 -20.5t18.5 -44.5v-944q0 -29 -18.5 -46.5t-47.5 -17.5q-27 0 -45 17.5t-18 46.5v375q-47 -41 -105.5 -66t-122.5 -25q-76 0 -138 31t-108.5 82t-72 117.5 t-25.5 138.5zM221 344q0 -47 16.5 -90t45 -77t67.5 -53.5t86 -19.5t87 19.5t67.5 53.5t43 77t15.5 90q0 45 -15.5 88t-43 77t-67.5 53.5t-87 19.5t-86 -19.5t-67.5 -53.5t-45 -77t-16.5 -88z" />
<glyph unicode="r" horiz-adv-x="532" d="M143 55v578q0 29 18.5 47t45.5 18q29 0 47 -18t18 -47v-12q39 35 86.5 56t98.5 21q23 0 44 -17t21 -46q0 -59 -57 -66q-90 -20 -141.5 -94t-51.5 -166v-254q0 -29 -18 -47t-47 -18q-27 0 -45.5 18.5t-18.5 46.5z" />
<glyph unicode="s" horiz-adv-x="784" d="M113 207q0 35 10 58.5t59 23.5q35 0 47.5 -25.5t12.5 -44.5q0 -35 14 -57.5t37.5 -35.5t54.5 -18.5t64 -5.5q27 0 56.5 6.5t54 18.5t40 32.5t15.5 49.5q0 37 -34 55.5t-85 29.5t-109.5 22.5t-110 32t-85 57t-33.5 102.5q0 59 27.5 97t68.5 60.5t91 31t93 8.5 q51 0 103.5 -10.5t93.5 -37t67.5 -69.5t26.5 -107q0 -29 -22.5 -45t-44.5 -16q-31 0 -45.5 19.5t-16.5 41.5q-2 31 -17.5 49.5t-38 28.5t-51 13t-55.5 3q-20 0 -45.5 -2t-49 -9t-40 -20.5t-16.5 -33.5q0 -27 33.5 -41t85 -24.5t110 -23.5t109.5 -38t85 -66t34 -108 q0 -61 -28 -105.5t-71 -73t-95 -43t-101 -14.5q-53 0 -106.5 12.5t-96.5 40t-69.5 71.5t-26.5 110z" />
<glyph unicode="t" horiz-adv-x="538" d="M61 633q0 25 18.5 45t47.5 20h98v166q0 29 18.5 47.5t45.5 18.5q29 0 47 -18.5t18 -47.5v-166h105q27 0 45 -20.5t18 -44.5q0 -27 -18.5 -45.5t-44.5 -18.5h-105v-520q0 -25 -18.5 -44t-46.5 -19q-27 0 -45.5 19.5t-18.5 43.5v520h-98q-29 0 -47.5 18.5t-18.5 45.5z" />
<glyph unicode="u" d="M143 291v338q0 25 18.5 45t47.5 20q27 0 45 -20.5t18 -44.5v-338q0 -37 9.5 -71t29 -60.5t48 -43t67.5 -16.5q55 0 91 26t55.5 69t27.5 100t8 119v215q0 25 18.5 45t45.5 20q25 0 45 -20.5t20 -44.5v-580q0 -29 -20.5 -46t-44.5 -17q-25 0 -43.5 17t-20.5 40 q-37 -33 -83 -52.5t-99 -19.5q-68 0 -121 27t-89 72t-54.5 102t-18.5 119z" />
<glyph unicode="v" horiz-adv-x="684" d="M61 633q0 29 18.5 47t47.5 18q23 0 38 -13t21 -30l174 -444l172 444q6 16 23 29.5t37 13.5q29 0 47 -18t18 -47q0 -4 -15 -48t-39.5 -109.5t-53.5 -140.5t-55.5 -142.5t-46 -117.5t-23.5 -63v6q-8 -25 -24.5 -35t-39.5 -10q-49 0 -65 39q-6 12 -25.5 61.5t-45 117 t-54.5 143.5t-53.5 140.5t-40 109.5t-15.5 49z" />
<glyph unicode="w" horiz-adv-x="1118" d="M61 637q0 29 18.5 47t47.5 18q20 0 36.5 -11t22.5 -34v2q25 -68 43.5 -119t36 -98t35.5 -98t41 -119l156 434v-4q8 27 25.5 37t37.5 10q23 0 37 -9t25 -34l155 -432q39 109 79 217.5t77 214.5v-2q16 45 61 45q27 0 45.5 -18t18.5 -47q0 -2 -14.5 -46t-37 -108.5 t-49 -140.5t-50 -143.5t-42 -116.5t-22.5 -62v5q-8 -29 -25.5 -37t-40.5 -8t-38 6t-25 34l-154 429l-153 -429v5q-8 -29 -25.5 -37t-40.5 -8t-40 8t-23 37v-5q-4 12 -22.5 61.5t-43.5 117t-51.5 143.5t-49 140.5t-37 107.5t-14.5 47z" />
<glyph unicode="x" horiz-adv-x="671" d="M92 51q0 10 3 17.5t5 11.5l185 266q-43 61 -92.5 130t-90.5 130q-4 6 -7 12.5t-3 14.5q0 29 20.5 48t49.5 19q31 0 53 -28l145 -215l148 215l-2 -4q6 16 21.5 24t31.5 8q29 0 47.5 -18t18.5 -47q0 -8 -2 -15.5t-5 -13.5l-182 -260l185 -266q4 -8 4 -27q0 -29 -18.5 -47 t-47.5 -18q-16 0 -31.5 8t-21.5 24l2 -4l-148 217l-145 -219q-22 -26 -51 -26h-2q-29 0 -49.5 17.5t-20.5 45.5z" />
<glyph unicode="y" horiz-adv-x="696" d="M61 635q0 29 18.5 47t47.5 18q18 0 34.5 -12t24.5 -29l183 -442q45 113 89 220.5t85 219.5v-2q8 23 26.5 34t34.5 11q29 0 47.5 -18t18.5 -47q0 -4 -26 -72.5t-64.5 -171t-86 -222.5t-88 -227.5t-71.5 -185.5t-39 -96v2q-6 -16 -22.5 -28.5t-36.5 -12.5q-25 0 -45.5 20.5 t-20.5 43.5q0 14 9 42.5t23.5 64.5t31 77t32.5 78l39 96q-12 29 -34.5 83t-50 118.5t-55.5 133t-51.5 125t-38 93.5t-14.5 39z" />
<glyph unicode="z" horiz-adv-x="737" d="M92 70q0 23 17 43l366 438h-299q-25 0 -45 17.5t-20 45.5q0 25 20.5 44.5t44.5 19.5h440q23 0 43.5 -19.5t20.5 -44.5t-16 -41l-369 -438h299q29 0 47 -18.5t18 -46.5q0 -23 -18 -43.5t-47 -20.5h-436q-29 0 -47.5 20.5t-18.5 43.5z" />
<glyph unicode="{" horiz-adv-x="757" d="M141 426q0 23 17.5 45.5t46.5 22.5h16q31 0 36 7t5 52v475q0 84 57.5 143.5t141.5 59.5h133q23 0 43 -18.5t20 -47.5q0 -27 -20.5 -45t-42.5 -18h-133q-31 0 -50.5 -22.5t-19.5 -51.5v-481q0 -29 -1 -59.5t-17 -59.5q16 -29 17 -60.5t1 -60.5v-481q0 -29 19.5 -51.5 t50.5 -22.5h133q23 0 43 -18.5t20 -46.5q0 -25 -20.5 -44.5t-42.5 -19.5h-133q-84 0 -141.5 59.5t-57.5 143.5v498v14q0 12 -5 18t-21 6h-9q-4 0 -10 -1t-10 -1q-27 0 -46.5 12.5t-19.5 53.5z" />
<glyph unicode="|" horiz-adv-x="339" d="M141 -315v1484q0 29 18.5 47.5t47.5 18.5t46 -18.5t17 -47.5v-1484q0 -27 -17 -45.5t-46 -18.5t-47.5 18.5t-18.5 45.5z" />
<glyph unicode="}" horiz-adv-x="757" d="M141 -313q0 29 18.5 47t47.5 18h133q29 0 48.5 22.5t19.5 51.5v481q0 29 1 60.5t17 60.5q-16 29 -17 59.5t-1 59.5v481q0 29 -19.5 51.5t-48.5 22.5h-133q-29 0 -47.5 18t-18.5 45q0 29 18.5 47.5t47.5 18.5h133q41 0 77 -16.5t62.5 -44t42 -64.5t15.5 -78v-475 q0 -45 5 -52t33 -7h21q29 0 45 -22.5t16 -45.5q0 -41 -21.5 -53.5t-45.5 -12.5q-6 0 -11.5 1t-9.5 1h-6q-29 0 -28 -24q0 -4 1 -7t1 -7v-498q0 -41 -15.5 -78t-42 -64.5t-62.5 -44t-77 -16.5h-133q-29 0 -47.5 19.5t-18.5 44.5z" />
<glyph unicode="~" horiz-adv-x="978" d="M141 522q0 45 12.5 87t37 75t62.5 53.5t89 20.5q78 0 123 -34t84 -75h-2q29 -31 58.5 -54.5t70.5 -23.5q37 0 44 28t10 61.5t13.5 61.5t53.5 28q41 0 53 -21.5t12 -50.5q0 -43 -9 -85t-31.5 -76t-58.5 -54.5t-87 -20.5q-70 0 -115 29t-80 64.5t-66.5 64.5t-72.5 29 t-52 -27t-16.5 -59.5t-16.5 -59t-50 -26.5q-29 0 -47.5 20.5t-18.5 44.5z" />
<glyph unicode="&#xa1;" horiz-adv-x="376" d="M141 909q0 31 23.5 55.5t58.5 24.5q31 0 55.5 -24.5t24.5 -55.5q0 -35 -24.5 -58.5t-55.5 -23.5q-35 0 -58.5 23.5t-23.5 58.5zM158 -190v884q0 27 18 45.5t47 18.5q23 0 43.5 -18.5t20.5 -45.5v-884q0 -27 -20.5 -45.5t-43.5 -18.5q-29 0 -47 18.5t-18 45.5z" />
<glyph unicode="&#xa2;" horiz-adv-x="884" d="M141 618q0 70 26 136.5t72 118t109.5 82t136.5 30.5h23l57 191l-2 -5q4 23 22.5 38.5t39.5 15.5q29 0 47 -20.5t18 -43.5q0 -6 -7 -30.5t-16.5 -57.5t-18.5 -67.5l-15 -57.5q41 -23 76.5 -55.5t60.5 -73.5q-2 0 2 -10t10 -25.5t11.5 -36t5.5 -38.5q0 -31 -19.5 -46.5 t-42.5 -15.5q-16 0 -29.5 9.5t-17.5 27.5t-10 31.5t-10 23.5q-6 10 -13 17q-23 39 -59 65q-35 -115 -62.5 -218t-62.5 -222h12q53 0 110.5 29.5t104.5 119.5l6 10q5 9 14 18t22.5 17.5t27.5 8.5t30.5 -13.5t16.5 -38.5q0 -18 -7 -37.5t-15 -35.5q-8 -20 -21 -37 q-55 -86 -135 -128t-178 -42q-14 0 -23 2l-59 -207l2 4q-4 -23 -22.5 -37t-41.5 -14q-27 0 -45 18.5t-18 44.5q0 4 7 32t17.5 64t20.5 73.5t18 64.5q-84 51 -130 138t-46 183zM270 618q0 -53 21.5 -104t62.5 -86q29 104 59.5 213t59.5 215q-45 -2 -82 -22.5t-63.5 -53 t-42 -75t-15.5 -87.5z" />
<glyph unicode="&#xa3;" horiz-adv-x="1126" d="M141 629q0 37 21.5 50t50.5 15q-20 70 -20 150q0 82 30.5 154.5t84.5 126t126 85t154 31.5q121 0 220 -69.5t148 -186.5q0 -2 1 -6t1 -6q0 -29 -20 -46.5t-45 -17.5q-39 0 -59 37l-31 58l2 -3q-37 51 -94.5 81t-122.5 30q-55 0 -103.5 -21.5t-85.5 -57.5t-57 -85 t-20 -104q0 -39 7 -76t19 -74h223q27 0 45.5 -18.5t18.5 -46.5q0 -23 -18.5 -43.5t-45.5 -20.5h-172q25 -66 42.5 -129t17.5 -141q0 -35 -4 -66.5t-15 -62.5q23 2 40.5 2h37.5q63 0 121.5 -13.5t118.5 -33.5q23 -8 49 -15.5t49 -7.5q25 0 40 11.5t38 11.5t43 -19.5t20 -44.5 t-17 -41t-39.5 -27.5t-47.5 -15.5t-37 -4q-37 0 -67.5 8.5t-61.5 18.5h6h-4q-2 0 -4 2q-53 18 -103.5 29.5t-103.5 11.5q-57 0 -118.5 -12.5t-114.5 -34.5l-15 -4l23 6q-20 -10 -43 -10q-37 0 -57 47l-5 14q0 27 19.5 43t40.5 27q23 8 38 28.5t25.5 46t14.5 53t4 52.5 q0 74 -19.5 138.5t-48.5 129.5h-20q-35 0 -68 11.5t-33 54.5z" />
<glyph unicode="&#xa5;" horiz-adv-x="997" d="M141 1163q0 27 18.5 45.5t47.5 18.5q39 0 57 -35l246 -463q59 111 124.5 231.5t123.5 231.5q8 16 24.5 25.5t32.5 9.5q29 0 47.5 -18.5t18.5 -45.5q0 -6 -15.5 -37.5t-39 -80t-54.5 -105.5t-61.5 -114.5t-59 -109.5t-49.5 -89h174q27 0 45.5 -18.5t18.5 -47.5 q0 -27 -18.5 -44t-45.5 -17h-203v-72h203q27 0 45.5 -19.5t18.5 -43.5q0 -29 -18.5 -47.5t-45.5 -18.5h-203v-246q0 -25 -17 -45t-46 -20q-25 0 -44.5 20.5t-19.5 44.5v246h-200q-27 0 -45.5 18.5t-18.5 47.5q0 25 18.5 44t45.5 19h200v72h-200q-27 0 -45.5 17.5t-18.5 43.5 q0 29 18.5 47.5t45.5 18.5h172q-20 37 -48 89t-58.5 109.5t-61.5 114.5t-54.5 105.5t-39 80t-15.5 37.5z" />
<glyph unicode="&#xa6;" horiz-adv-x="339" d="M141 238q0 27 18.5 45t47.5 18t46 -18.5t17 -44.5v-557q0 -29 -17 -47.5t-46 -18.5t-47.5 18.5t-18.5 47.5v557zM141 608v559q0 25 18.5 45.5t47.5 20.5t46 -20.5t17 -45.5v-559q0 -25 -17 -44t-46 -19t-47.5 19.5t-18.5 43.5z" />
<glyph unicode="&#xa7;" horiz-adv-x="999" d="M141 2q0 29 20.5 46.5t45.5 17.5q47 0 56 -33t9 -68q0 -47 23.5 -86t59.5 -66.5t81 -43t88 -15.5q98 0 164 56.5t66 160.5q0 84 -45 134.5t-114 84t-147.5 60t-147.5 65.5t-114 99.5t-45 163.5q0 49 14.5 93t37.5 83q-51 76 -52 168q0 72 28 131t74 102t108.5 66.5 t129.5 23.5q76 0 140.5 -25.5t111.5 -71.5t72.5 -110.5t25.5 -140.5q0 -27 -17 -45t-46 -18q-33 0 -47 17t-16 44l-3 33q-4 10 -5 21.5t-1 15.5q-23 72 -76 109.5t-126 41.5h-13q-41 0 -80 -14.5t-67.5 -40t-46 -61t-17.5 -78.5q0 -49 22.5 -84t58.5 -59.5t79 -42t86 -31.5 q68 -23 133.5 -56t117.5 -80t84 -108.5t32 -143.5q0 -96 -45 -180q45 -76 45 -166q0 -80 -28 -144.5t-75 -108.5t-113.5 -68.5t-142.5 -24.5q-84 0 -154.5 28t-121.5 77t-79 118.5t-28 153.5zM270 578q0 -47 23.5 -82t59.5 -60.5t79 -43t84 -32.5q61 -20 119.5 -48.5 t109.5 -67.5q6 18 7.5 36.5t1.5 36.5q0 86 -54.5 138.5t-129 87.5t-152.5 60.5t-125 58.5q-14 -20 -18.5 -38.5t-4.5 -45.5z" />
<glyph unicode="&#xa8;" horiz-adv-x="567" d="M141 1038q0 33 23.5 57.5t58.5 24.5q33 0 57.5 -24.5t24.5 -57.5q0 -35 -24.5 -57.5t-57.5 -22.5q-35 0 -58.5 23t-23.5 57zM319 1038q0 33 25 57.5t55 24.5q35 0 58.5 -24.5t23.5 -57.5q0 -35 -23.5 -57.5t-58.5 -22.5q-31 0 -55.5 23t-24.5 57z" />
<glyph unicode="&#xa9;" horiz-adv-x="1585" d="M141 602q0 133 50.5 250t137.5 204t203.5 137t249.5 50q131 0 248 -50t205 -137t138 -204t50 -250t-50 -249.5t-138 -204t-205 -137.5t-248 -50q-133 0 -249.5 50t-203.5 137.5t-137.5 204t-50.5 249.5zM270 602q0 -106 40 -199.5t109.5 -163t163 -109.5t199.5 -40 t199.5 40t163 109.5t109.5 163t40 199.5q0 104 -40 197.5t-109.5 163t-162.5 110.5t-200 41q-106 0 -199.5 -41t-163 -110.5t-109.5 -162.5t-40 -198zM453 592q0 72 26.5 138.5t72.5 116.5t108.5 80.5t134.5 30.5q45 0 96 -19t96 -48t75 -63.5t30 -67.5q0 -25 -18.5 -43.5 t-45.5 -18.5q-29 0 -46 17.5t-30 36.5l-8 8q-29 33 -67.5 51t-81.5 18q-45 0 -84 -19t-68 -53t-45 -77t-16 -88t16 -88t45 -76t68 -53.5t84 -20.5q41 0 90 21.5t67 58.5v-2q12 23 32 42.5t48 19.5q27 0 44.5 -18.5t17.5 -45.5q0 -37 -30 -74t-75 -65.5t-97 -47t-97 -18.5 q-72 0 -134.5 31t-108.5 81t-72.5 116.5t-26.5 138.5z" />
<glyph unicode="&#xaa;" horiz-adv-x="763" d="M141 956q0 53 19.5 102.5t53.5 88.5t82 61.5t103 22.5q78 0 140 -43q14 33 59 33q25 0 45.5 -18.5t20.5 -45.5v-401q0 -25 -20.5 -45.5t-45.5 -20.5q-45 0 -59 35q-63 -45 -140 -45q-55 0 -103 22.5t-82 61.5t-53.5 89t-19.5 103zM270 956q0 -55 36 -101t93 -46 q59 0 95 46t36 101q0 57 -35.5 102.5t-95.5 45.5q-57 0 -93 -45t-36 -103z" />
<glyph unicode="&#xab;" horiz-adv-x="587" d="M100 322.5v13.5v8v11t4 16l136 286l-2 -2q8 16 23 29.5t38 13.5q25 0 44 -20.5t19 -44.5q0 -10 -11 -38t-26.5 -63.5t-35 -73.5t-33.5 -71l-23 -47l25 -53v2q14 -33 32.5 -71t35 -72.5t26.5 -61.5t10 -37q0 -27 -19 -45t-44 -18q-45 0 -61 39l2 -3l-136 289v-2 q-4 10 -4 15.5zM291 336v8q0 4 1 11t5 16l135 286l-2 -2q6 16 22.5 29.5t36.5 13.5q25 0 45.5 -20.5t20.5 -44.5q0 -12 -11.5 -40t-27.5 -62.5t-35.5 -72.5t-34.5 -71l-22 -47l25 -53v2q14 -33 33.5 -71t34.5 -72.5t26.5 -61.5t11.5 -37q0 -27 -20.5 -45t-45.5 -18 q-20 0 -36.5 10t-22.5 29l2 -3l-135 289v-2q-4 10 -5 15.5t-1 13.5z" />
<glyph unicode="&#xac;" horiz-adv-x="843" d="M141 709q0 33 27 53l164 112l-164 109q-27 20 -27 53q0 29 18.5 47.5t45.5 18.5q10 0 29.5 -10.5t43 -25.5t50 -33.5t49.5 -35.5v148q0 29 18.5 47t44.5 18q29 0 47.5 -18t18.5 -47v-156q23 16 48.5 34.5t48 33t41 24t28.5 9.5q29 0 47 -17.5t18 -46.5q0 -33 -28 -55 l-146 -99q25 -16 54.5 -33.5t56 -38t45 -41t18.5 -38.5q0 -29 -18.5 -47.5t-46.5 -18.5q-10 0 -28.5 9.5t-41 25t-48.5 32.5t-48 34v-154q0 -29 -18.5 -47t-47.5 -18q-27 0 -45 18t-18 47v146q-23 -16 -49.5 -34t-50 -33t-43 -25.5t-29.5 -10.5q-27 0 -45.5 18.5t-18.5 45.5 z" />
<glyph unicode="&#xad;" horiz-adv-x="743" d="M141 653q0 27 18.5 45.5t47.5 18.5h375q27 0 44 -18.5t17 -45.5q0 -25 -17.5 -45t-43.5 -20h-375q-29 0 -47.5 20.5t-18.5 44.5z" />
<glyph unicode="&#xae;" horiz-adv-x="1585" d="M141 604q0 133 50.5 250t137.5 204t203.5 137t249.5 50q131 0 248 -50t205 -137t138 -204t50 -250t-50 -248.5t-138 -204t-205 -138.5t-248 -50q-133 0 -249.5 50t-203.5 138.5t-137.5 204t-50.5 248.5zM270 604q0 -106 40 -199.5t109.5 -163t163 -109.5t199.5 -40 t199.5 40t163 109.5t109.5 163t40 199.5t-40 199.5t-109.5 163t-162.5 109.5t-200 40q-106 0 -199.5 -40t-163 -109.5t-109.5 -162.5t-40 -200zM555 313v580q0 25 17.5 45t43.5 20h175q45 0 95 -14t90 -42t66.5 -68.5t26.5 -96.5q0 -66 -43 -115t-96 -75l4 -6q20 -29 46 -64 t48.5 -67.5t37.5 -59t15 -37.5q0 -27 -18.5 -45t-46.5 -18q-35 0 -51 26v-2l-172 242q-8 0 -16.5 -1t-18.5 -1q-18 0 -37 1t-35 1h-4v-203q0 -29 -18.5 -47t-47.5 -18q-27 0 -44 18.5t-17 46.5zM682 645h109q23 0 48 5t47.5 16.5t38 29t15.5 41.5q0 25 -15.5 42.5t-38 28.5 t-48 16t-47.5 5h-109v-184z" />
<glyph unicode="&#xaf;" horiz-adv-x="843" d="M141 709q0 33 27 53l164 112l-164 109q-27 20 -27 53q0 29 18.5 47.5t45.5 18.5q10 0 29.5 -10.5t43 -25.5t50 -33.5t49.5 -35.5v148q0 29 18.5 47t44.5 18q29 0 47.5 -18t18.5 -47v-156q23 16 48.5 34.5t48 33t41 24t28.5 9.5q29 0 47 -17.5t18 -46.5q0 -33 -28 -55 l-146 -99q25 -16 54.5 -33.5t56 -38t45 -41t18.5 -38.5q0 -29 -18.5 -47.5t-46.5 -18.5q-10 0 -28.5 9.5t-41 25t-48.5 32.5t-48 34v-154q0 -29 -18.5 -47t-47.5 -18q-27 0 -45 18t-18 47v146q-23 -16 -49.5 -34t-50 -33t-43 -25.5t-29.5 -10.5q-27 0 -45.5 18.5t-18.5 45.5 z" />
<glyph unicode="&#xb0;" horiz-adv-x="661" d="M141 1020q0 45 16.5 84t46 67.5t68.5 46t84 17.5q43 0 82 -17.5t69 -46t46 -67.5t16 -84q0 -43 -16 -82t-46 -68.5t-69 -46t-82 -16.5q-45 0 -84 16.5t-68.5 46t-46 68.5t-16.5 82zM258 1020q0 -41 28.5 -69.5t69.5 -28.5t69 28.5t28 69.5t-28 69.5t-69 28.5t-69.5 -28.5 t-28.5 -69.5z" />
<glyph unicode="&#xb1;" horiz-adv-x="843" d="M141 709q0 33 27 53l164 112l-164 109q-27 20 -27 53q0 29 18.5 47.5t45.5 18.5q10 0 29.5 -10.5t43 -25.5t50 -33.5t49.5 -35.5v148q0 29 18.5 47t44.5 18q29 0 47.5 -18t18.5 -47v-156q23 16 48.5 34.5t48 33t41 24t28.5 9.5q29 0 47 -17.5t18 -46.5q0 -33 -28 -55 l-146 -99q25 -16 54.5 -33.5t56 -38t45 -41t18.5 -38.5q0 -29 -18.5 -47.5t-46.5 -18.5q-10 0 -28.5 9.5t-41 25t-48.5 32.5t-48 34v-154q0 -29 -18.5 -47t-47.5 -18q-27 0 -45 18t-18 47v146q-23 -16 -49.5 -34t-50 -33t-43 -25.5t-29.5 -10.5q-27 0 -45.5 18.5t-18.5 45.5 z" />
<glyph unicode="&#xb2;" horiz-adv-x="661" d="M141 1008q0 43 16.5 82.5t46 68.5t68.5 46.5t82 17.5q45 0 84 -17.5t69 -47.5t46 -68.5t16 -83.5q0 -80 -32.5 -127.5t-76.5 -80t-91 -60t-78 -66.5h207q25 0 45 -20.5t20 -45.5q0 -27 -20.5 -45t-44.5 -18l-314 2l-39 35l-2 26q0 53 15.5 92t40 69t56.5 51.5t64 39.5h-2 q47 29 85 61.5t38 88.5q0 35 -24.5 60.5t-61.5 25.5q-43 0 -57 -23.5t-22.5 -52.5t-20.5 -52.5t-47 -23.5q-29 0 -47.5 20.5t-18.5 45.5z" />
<glyph unicode="&#xb3;" horiz-adv-x="684" d="M141 741q0 29 17.5 47.5t46.5 18.5q37 0 49 -23.5t21.5 -53.5t26 -53.5t63.5 -23.5q39 0 66.5 24.5t27.5 63.5q0 45 -24.5 61.5t-55.5 25t-55.5 20.5t-24.5 49q0 35 22.5 46t50 18.5t51 19.5t23.5 49q0 29 -25.5 47.5t-55.5 18.5q-43 0 -58.5 -20.5t-24 -45t-19.5 -45 t-44 -20.5q-25 0 -45 18t-20 47q0 43 17 79t47 61.5t68 40t79 14.5t78.5 -14.5t67.5 -40t47 -61.5t17 -79q0 -78 -53 -131q29 -31 47.5 -73t18.5 -85q0 -45 -17.5 -85t-48 -68.5t-71.5 -46t-86 -17.5t-86 17.5t-72 46t-48.5 68.5t-17.5 85z" />
<glyph unicode="&#xb4;" horiz-adv-x="530" d="M141 1063q0 27 27 41l178 131q25 20 55 20q27 0 48.5 -15t21.5 -36q0 -20 -20 -35l-191 -139q-23 -18 -49 -18q-29 0 -49.5 16.5t-20.5 34.5z" />
<glyph unicode="&#xb5;" horiz-adv-x="843" d="M141 709q0 33 27 53l164 112l-164 109q-27 20 -27 53q0 29 18.5 47.5t45.5 18.5q10 0 29.5 -10.5t43 -25.5t50 -33.5t49.5 -35.5v148q0 29 18.5 47t44.5 18q29 0 47.5 -18t18.5 -47v-156q23 16 48.5 34.5t48 33t41 24t28.5 9.5q29 0 47 -17.5t18 -46.5q0 -33 -28 -55 l-146 -99q25 -16 54.5 -33.5t56 -38t45 -41t18.5 -38.5q0 -29 -18.5 -47.5t-46.5 -18.5q-10 0 -28.5 9.5t-41 25t-48.5 32.5t-48 34v-154q0 -29 -18.5 -47t-47.5 -18q-27 0 -45 18t-18 47v146q-23 -16 -49.5 -34t-50 -33t-43 -25.5t-29.5 -10.5q-27 0 -45.5 18.5t-18.5 45.5 z" />
<glyph unicode="&#xb6;" horiz-adv-x="1218" d="M141 870q0 70 27 132.5t74 109.5t108.5 73.5t132.5 26.5h537q29 0 47 -18t18 -47q0 -43 -30.5 -54.5t-63.5 -11.5v-1409q0 -25 -18.5 -45t-44.5 -20q-29 0 -47.5 20.5t-18.5 44.5v1411h-213v-1411q0 -25 -18.5 -45t-44.5 -20q-29 0 -46.5 20.5t-17.5 44.5v856h-39 q-72 0 -133 27t-108 74t-74 108.5t-27 132.5zM270 870q0 -43 16.5 -81.5t46 -68.5t68.5 -46.5t82 -16.5h39v426h-39q-43 0 -82 -16t-68.5 -46t-46 -69t-16.5 -82z" />
<glyph unicode="&#xb7;" horiz-adv-x="376" d="M141 559q0 33 23.5 56.5t58.5 23.5q31 0 55.5 -23.5t24.5 -56.5q0 -35 -24.5 -58.5t-55.5 -23.5q-35 0 -58.5 23.5t-23.5 58.5z" />
<glyph unicode="&#xb8;" horiz-adv-x="501" d="M141 -188q0 16 4.5 41.5t8.5 53t9 54.5t9 45q6 29 37 29q16 0 27.5 -10.5t11.5 -26.5q0 -27 -7.5 -57.5t-11.5 -59.5q23 10 47.5 19.5t53.5 9.5q47 0 71.5 -32t24.5 -75q0 -39 -21.5 -80.5t-55.5 -76.5t-75 -57.5t-79 -22.5q-14 0 -24.5 12.5t-10.5 28.5q0 14 10 22.5 t25 10.5q25 4 51 20t49.5 38.5t39 50.5t15.5 54q0 12 -3 21.5t-19 9.5q-20 0 -43 -10t-43.5 -21.5t-38 -21.5t-25.5 -10q-16 0 -26.5 12t-10.5 29z" />
<glyph unicode="&#xb9;" horiz-adv-x="477" d="M141 1096q0 35 27 53l18 14l-2 -2q20 14 46 32.5t49 18.5q29 0 47 -18t18 -47v-481q23 -4 38 -16.5t15 -47.5q0 -27 -20.5 -45t-44.5 -18h-105q-27 0 -45 18t-18 45q0 35 14.5 47.5t36.5 16.5v366h-10q-27 0 -45.5 19.5t-18.5 44.5z" />
<glyph unicode="&#xba;" horiz-adv-x="759" d="M141 954q0 53 19.5 103.5t53.5 88.5t82 61.5t103 23.5q57 0 104.5 -23.5t82.5 -61.5t54 -88t19 -104q0 -53 -19 -103t-54 -89t-82 -61.5t-105 -22.5q-55 0 -103 22.5t-82 61.5t-53.5 89t-19.5 103zM270 954q0 -55 36 -101t93 -46q59 0 95 46t36 101q0 57 -35.5 102.5 t-95.5 45.5q-57 0 -93 -45t-36 -103z" />
<glyph unicode="&#xbb;" horiz-adv-x="587" d="M102 47q0 10 10.5 37t27 61.5t35 72.5t34.5 71v-2q6 16 11 25.5t13 25.5l-22 51v-2q-16 33 -34.5 71t-35 73.5t-28 63.5t-11.5 38q0 25 19.5 45t44.5 20q23 0 38 -13t23 -30l-2 2l135 -286q4 -8 4.5 -15.5t0.5 -11.5v-8v-13.5t-5 -15.5v2l-135 -289l2 3q-16 -39 -61 -39 q-25 0 -44.5 18t-19.5 45zM293 47q0 10 11 37t26.5 61.5t34 72.5t34.5 71v-2q8 16 13.5 25.5t11.5 25.5l-23 51v-2q-16 33 -34.5 71t-35 73.5t-27.5 63.5t-11 38q0 25 20.5 45t44.5 20q23 0 38.5 -13t21.5 -30l-2 2l135 -286q4 -8 5 -15.5t1 -11.5v-8q0 -8 -1 -13.5 t-5 -15.5v2l-135 -289l2 3q-6 -18 -22.5 -28.5t-37.5 -10.5q-25 0 -45 18t-20 45z" />
<glyph unicode="&#xbc;" horiz-adv-x="1216" d="M141 1186q0 10 12.5 28.5t33 37t45 32.5t49.5 14q29 0 46 -18t17 -45v-481q23 -4 38 -16.5t15 -47.5q0 -29 -19.5 -46t-43.5 -17h-105q-29 0 -47 17.5t-18 45.5q0 35 15.5 47.5t35.5 16.5v366h-8q-29 0 -47.5 18.5t-18.5 47.5zM215 41q0 8 28.5 72.5t73.5 162t102.5 216 t113 234.5t104.5 217t80 165l35 72q6 16 22.5 26.5t34.5 10.5q27 0 45 -18.5t18 -47.5q0 -6 -30.5 -74.5t-79.5 -174t-109.5 -232.5t-119 -247t-106.5 -221.5t-73 -154.5q-20 -41 -31 -55.5t-42 -14.5q-25 0 -45.5 18.5t-20.5 45.5zM647 352q0 10 3 36t8.5 58.5t11.5 66.5 t12 62l12 58q4 23 20.5 38t43.5 15q25 0 45 -20.5t20 -42.5q0 -12 -3 -36t-8 -51.5t-11 -58.5t-13 -55v2v-6h97v205q0 23 18.5 43t46.5 20q27 0 45.5 -20.5t18.5 -42.5v-205q27 0 48 -13.5t21 -52.5q0 -37 -21.5 -50t-47.5 -15v-224q0 -29 -18.5 -47t-45.5 -18 q-29 0 -47 18.5t-18 46.5v226h-174q-27 0 -45.5 18.5t-18.5 44.5z" />
<glyph unicode="&#xbd;" horiz-adv-x="1247" d="M141 1186q0 12 7.5 27.5t21.5 25.5q4 4 17.5 14.5t29.5 20.5t32.5 17t29.5 7q29 0 47 -18t18 -45v-481q23 -4 38 -16.5t15 -47.5q0 -29 -20.5 -46t-44.5 -17h-105q-27 0 -45 17.5t-18 45.5q0 35 14.5 47.5t36.5 16.5v366h-10q-27 0 -45.5 18.5t-18.5 47.5zM215 41 q0 8 28.5 72.5t73.5 162t101.5 216t112 234.5t104.5 217t80 165l35 72q6 16 23.5 26.5t35.5 10.5q25 0 43 -18.5t18 -47.5q0 -6 -31.5 -74.5t-79.5 -174t-108.5 -232.5t-118 -247t-106.5 -221.5t-74 -154.5q-12 -41 -29 -55.5t-44 -14.5q-25 0 -44.5 18.5t-19.5 45.5z M682 463q0 43 16.5 83t46 68.5t68.5 46t84 17.5t84 -17.5t67.5 -47t45 -68.5t16.5 -84q0 -78 -34 -127t-79 -83t-91 -61.5t-70 -62.5h204q27 0 45.5 -18.5t18.5 -45.5q0 -29 -18.5 -47t-45.5 -18h-295q-2 0 -10 1t-10 1l-37 37l-4 26q0 63 21.5 105.5t55.5 73t71.5 54 t71.5 47.5t55.5 51.5t21.5 68.5q0 35 -24.5 61.5t-59.5 26.5q-43 0 -58.5 -23.5t-23.5 -53.5t-19.5 -53.5t-47.5 -23.5q-25 0 -45.5 20.5t-20.5 45.5z" />
<glyph unicode="&#xbe;" horiz-adv-x="1400" d="M141 741q0 29 18.5 47.5t47.5 18.5q35 0 46 -23.5t20.5 -53.5t27 -53.5t64.5 -23.5q39 0 67.5 24.5t28.5 63.5q0 45 -24.5 60.5t-55.5 24t-55.5 20.5t-24.5 51q0 37 22.5 48t50 17.5t50 18.5t22.5 49q0 29 -24.5 48.5t-56.5 19.5q-41 0 -56.5 -20.5t-24 -46t-20.5 -46 t-45 -20.5q-25 0 -44 18t-19 47q0 43 17 79t47 62.5t67 41t78 14.5t78.5 -14.5t67.5 -41t47 -62.5t17 -79q0 -80 -53 -131q29 -31 48.5 -73t19.5 -85q0 -45 -18.5 -85t-49 -68.5t-71.5 -46t-86 -17.5t-86 17.5t-72 46t-48.5 68.5t-17.5 85zM387 41q0 6 32 74.5t80 174 t108.5 232.5t117.5 248t105.5 221.5t74.5 153.5q16 43 30.5 57.5t43.5 14.5q25 0 45 -18.5t20 -47.5q0 -8 -28.5 -72.5t-73.5 -162t-102.5 -215t-112.5 -233.5t-104.5 -217t-79.5 -165l-33 -74q-8 -18 -25.5 -26.5t-33.5 -8.5q-27 0 -45.5 18.5t-18.5 45.5zM817 352 q0 10 3 36t8.5 58.5t11.5 66.5t12 62l12 58q4 23 20.5 38t43.5 15q29 0 47 -20.5t18 -42.5q0 -12 -3 -36t-8 -51.5t-11 -58.5t-13 -55v2v-6h97v205q0 23 20.5 43t44.5 20q27 0 45.5 -20.5t18.5 -42.5v-205q27 0 48 -13.5t21 -52.5q0 -37 -21.5 -50t-47.5 -15v-224 q0 -29 -18.5 -47t-45.5 -18q-25 0 -45 18.5t-20 46.5v226h-174q-25 0 -44.5 18.5t-19.5 44.5z" />
<glyph unicode="&#xbf;" horiz-adv-x="987" d="M141 -10q0 66 17.5 114t47.5 86.5t68.5 70.5t81.5 65l25 20q31 27 53.5 51.5t35.5 52t19.5 61.5t6.5 79q0 29 8 57.5t55 28.5q23 0 36 -7t19.5 -18.5t7.5 -25t1 -27.5v-14q0 -115 -37 -192t-127 -148q-35 -29 -69 -53.5t-60.5 -54.5t-43 -64.5t-16.5 -81.5 q0 -98 66.5 -154.5t163.5 -56.5q104 0 172.5 57.5t68.5 161.5q0 25 13.5 47.5t48.5 22.5q29 0 48 -16.5t19 -45.5q0 -80 -27.5 -146.5t-76.5 -112.5t-117.5 -71.5t-148.5 -25.5q-74 0 -139.5 23.5t-113.5 68.5t-77 107.5t-29 140.5zM481 823q0 35 23.5 58.5t58.5 23.5 q31 0 56.5 -23.5t25.5 -58.5q0 -33 -25.5 -56.5t-56.5 -23.5q-35 0 -58.5 24t-23.5 56z" />
<glyph unicode="&#xc0;" horiz-adv-x="987" d="M61 51q0 4 15.5 52.5t40 126t57.5 177t67.5 205t68.5 208t61.5 186.5t47 142t23.5 75q8 23 24.5 34t39.5 11q20 0 37.5 -11.5t25.5 -33.5q4 -18 22.5 -78t46.5 -143.5t61.5 -186t68.5 -206t67.5 -202t58.5 -176t41 -127t15 -53.5q0 -25 -20.5 -45t-44.5 -20 q-23 0 -40.5 12t-23.5 35l-135 416h-360q-35 -109 -69 -209.5t-69 -206.5q-16 -47 -61 -47q-29 0 -47.5 20.5t-18.5 44.5zM313 1475q0 20 21.5 35.5t48.5 15.5q31 0 55 -21l178 -131q27 -14 27 -41q0 -18 -20.5 -34.5t-49.5 -16.5t-49 18l-190 140q-20 14 -21 35zM369 580 h272l-135 419z" />
<glyph unicode="&#xc1;" horiz-adv-x="987" d="M61 51q0 4 15.5 52.5t40 126t57.5 177t67.5 205t68.5 208t61.5 186.5t47 142t23.5 75q8 23 24.5 34t39.5 11q20 0 37.5 -11.5t25.5 -33.5q4 -18 22.5 -78t46.5 -143.5t61.5 -186t68.5 -206t67.5 -202t58.5 -176t41 -127t15 -53.5q0 -25 -20.5 -45t-44.5 -20 q-23 0 -40.5 12t-23.5 35l-135 416h-360q-35 -109 -69 -209.5t-69 -206.5q-16 -47 -61 -47q-29 0 -47.5 20.5t-18.5 44.5zM338 1339q0 27 27 41l178 131q25 20 55 21q27 0 48.5 -15.5t21.5 -35.5t-21 -35l-190 -139q-23 -18 -49 -19q-29 0 -49.5 16.5t-20.5 34.5zM369 580 h272l-135 419z" />
<glyph unicode="&#xc2;" horiz-adv-x="987" d="M61 51q0 4 15.5 52.5t40 126t57.5 177t67.5 205t68.5 208t61.5 186.5t47 142t23.5 75q8 23 24.5 34t39.5 11q20 0 37.5 -11.5t25.5 -33.5q4 -18 22.5 -78t46.5 -143.5t61.5 -186t68.5 -206t67.5 -202t58.5 -176t41 -127t15 -53.5q0 -25 -20.5 -45t-44.5 -20 q-23 0 -40.5 12t-23.5 35l-135 416h-360q-35 -109 -69 -209.5t-69 -206.5q-16 -47 -61 -47q-29 0 -47.5 20.5t-18.5 44.5zM332 1337q0 14 20.5 43t48 57.5t57.5 49t46 20.5q14 0 29.5 -6t23.5 -14l25 -27q14 -14 30.5 -32.5t30.5 -36t24.5 -31.5t10.5 -23q0 -18 -19.5 -32.5 t-44.5 -14.5q-16 0 -31.5 6.5t-25.5 16.5l-53 63l-58 -63q-8 -10 -23 -16.5t-28 -6.5q-29 0 -46 14.5t-17 32.5zM369 580h272l-135 419z" />
<glyph unicode="&#xc3;" horiz-adv-x="987" d="M61 51q0 4 15.5 52.5t40 126t57.5 177t67.5 205t68.5 208t61.5 186.5t47 142t23.5 75q8 23 24.5 34t39.5 11q20 0 37.5 -11.5t25.5 -33.5q4 -18 22.5 -78t46.5 -143.5t61.5 -186t68.5 -206t67.5 -202t58.5 -176t41 -127t15 -53.5q0 -25 -20.5 -45t-44.5 -20 q-23 0 -40.5 12t-23.5 35l-135 416h-360q-35 -109 -69 -209.5t-69 -206.5q-16 -47 -61 -47q-29 0 -47.5 20.5t-18.5 44.5zM305 1343q0 23 6 49.5t21.5 50t40 39t63.5 15.5q37 0 62.5 -16.5t43 -37t29 -36.5t19.5 -16q-2 0 -2 2v6q0 8 1 20.5t3 22.5v4q0 23 15.5 37t43.5 14 q23 0 42.5 -14.5t19.5 -34.5q0 -23 -4 -50.5t-18.5 -51t-39 -40t-65.5 -16.5q-37 0 -63.5 16.5t-44 37t-28 37t-16.5 16.5t-5 -15.5t-3 -35t-17.5 -35t-43.5 -15.5q-25 0 -42.5 15.5t-17.5 31.5zM369 580h272l-135 419z" />
<glyph unicode="&#xc4;" horiz-adv-x="987" d="M61 51q0 4 15.5 52.5t40 126t57.5 177t67.5 205t68.5 208t61.5 186.5t47 142t23.5 75q8 23 24.5 34t39.5 11q20 0 37.5 -11.5t25.5 -33.5q4 -18 22.5 -78t46.5 -143.5t61.5 -186t68.5 -206t67.5 -202t58.5 -176t41 -127t15 -53.5q0 -25 -20.5 -45t-44.5 -20 q-23 0 -40.5 12t-23.5 35l-135 416h-360q-35 -109 -69 -209.5t-69 -206.5q-16 -47 -61 -47q-29 0 -47.5 20.5t-18.5 44.5zM340 1343q0 31 23.5 56.5t58.5 25.5q33 0 58.5 -25.5t25.5 -56.5q0 -35 -25.5 -59t-58.5 -24q-35 0 -58.5 24.5t-23.5 58.5zM369 580h272l-135 419z M518 1343q0 31 25.5 56.5t58.5 25.5q35 0 58.5 -25.5t23.5 -56.5q0 -35 -23.5 -59t-58.5 -24q-33 0 -58.5 24.5t-25.5 58.5z" />
<glyph unicode="&#xc5;" horiz-adv-x="987" d="M61 51q0 2 13.5 46t36 115t52.5 161t61.5 188t64.5 196.5t60.5 184.5t50 151.5t32.5 98.5q-47 20 -76.5 64t-29.5 98q0 74 51 125t125 51q72 0 123 -51.5t51 -124.5q0 -53 -27.5 -95t-73.5 -63q16 -47 49 -149.5t75 -227.5t86 -258t81 -244.5t60.5 -185.5t23.5 -80 q0 -25 -20.5 -45t-44.5 -20q-23 0 -40.5 12t-23.5 35l-135 416h-360q-35 -109 -69 -209.5t-69 -206.5q-16 -47 -61 -47q-29 0 -47.5 20.5t-18.5 44.5zM369 580h272l-135 419zM422 1354q0 -33 22.5 -56.5t57.5 -23.5q33 0 55.5 23.5t22.5 56.5t-22.5 56.5t-55.5 23.5 q-35 0 -57.5 -24t-22.5 -56z" />
<glyph unicode="&#xc6;" horiz-adv-x="843" d="M141 719q0 31 27 55l166 113l-166 110q-27 20 -27 56q0 29 18.5 47t47.5 18q8 0 28.5 -10t45 -25.5t51 -35t49.5 -35.5v149q0 29 18.5 47.5t46.5 18.5q29 0 47.5 -18.5t18.5 -47.5v-157q23 16 48.5 34.5t49 33.5t42 24.5t28.5 9.5q29 0 47 -18.5t18 -47.5q0 -35 -28 -55 l-146 -100l146 -101q29 -16 28 -53q0 -29 -18 -47t-47 -18q-10 0 -28.5 9t-42 24.5t-49 34t-48.5 34.5v-158q0 -29 -18.5 -47t-47.5 -18t-47 18.5t-18 46.5v148q-23 -16 -49.5 -34.5t-51 -34t-45 -26t-28.5 -10.5q-29 0 -47.5 18.5t-18.5 47.5z" />
<glyph unicode="&#xc7;" horiz-adv-x="985" d="M113 625q0 94 24.5 207.5t76.5 212t135 165t200 66.5q49 0 95 -17.5t87 -45t75 -64.5t60 -74q6 -8 15.5 -24.5t18.5 -35t16.5 -35.5t7.5 -28q0 -29 -20.5 -47t-45.5 -18q-23 0 -38 11t-23 28q-18 39 -42 77.5t-54.5 70.5t-68.5 51.5t-83 19.5q-53 0 -107 -37 q-55 -37 -93 -93.5t-61.5 -122t-33.5 -135t-10 -132.5q0 -70 18.5 -159t56 -169t95 -134t135.5 -54q45 0 83 19t68.5 51t54 71t42.5 78q8 16 23.5 26.5t37.5 10.5q25 0 45.5 -19.5t20.5 -44.5q0 -10 -7.5 -28.5t-16.5 -37t-18.5 -35t-15.5 -24.5q-53 -78 -134 -137t-181 -62 q-2 -23 -8 -50t-8 -50q23 10 47 19.5t53 9.5q47 0 71.5 -32t24.5 -75q0 -39 -21.5 -81t-55 -76.5t-74.5 -57t-80 -22.5q-14 0 -24.5 12.5t-10.5 28.5q0 14 10 22t25 10q25 4 51.5 20.5t50 39t38.5 50.5t15 54q0 12 -3 21.5t-19 9.5q-20 0 -43 -10t-43.5 -21.5t-37.5 -21.5 t-26 -10q-16 0 -26.5 12t-10.5 28q0 31 10.5 84.5t18.5 94.5q-98 27 -167.5 96.5t-112.5 160.5t-62.5 192.5t-19.5 189.5z" />
<glyph unicode="&#xc8;" horiz-adv-x="876" d="M174 59v1129q0 25 18.5 45t47.5 20h518q29 0 47 -20.5t18 -44.5q0 -29 -18.5 -47.5t-46.5 -18.5h-453v-389h283q27 0 46 -20.5t19 -44.5q0 -29 -19.5 -47.5t-45.5 -18.5h-283v-477h453q29 0 47 -18.5t18 -47.5q0 -25 -18.5 -45t-46.5 -20h-518q-29 0 -47.5 20.5 t-18.5 44.5zM319 1470q0 20 21.5 36t48.5 16q31 0 55 -21l179 -131q26 -14 26 -41q0 -18 -20.5 -34.5t-48.5 -16.5q-29 0 -50 18l-190 140q-20 14 -21 34z" />
<glyph unicode="&#xc9;" horiz-adv-x="876" d="M174 59v1129q0 25 18.5 45t47.5 20h518q29 0 47 -20.5t18 -44.5q0 -29 -18.5 -47.5t-46.5 -18.5h-453v-389h283q27 0 46 -20.5t19 -44.5q0 -29 -19.5 -47.5t-45.5 -18.5h-283v-477h453q29 0 47 -18.5t18 -47.5q0 -25 -18.5 -45t-46.5 -20h-518q-29 0 -47.5 20.5 t-18.5 44.5zM371 1339q0 27 26 41l178 131q25 20 56 21q27 0 48 -15.5t21 -35.5t-20 -35l-191 -139q-23 -18 -49 -19q-29 0 -49 16.5t-20 34.5z" />
<glyph unicode="&#xca;" horiz-adv-x="876" d="M174 59v1129q0 25 18.5 45t47.5 20h518q29 0 47 -20.5t18 -44.5q0 -29 -18.5 -47.5t-46.5 -18.5h-453v-389h283q27 0 46 -20.5t19 -44.5q0 -29 -19.5 -47.5t-45.5 -18.5h-283v-477h453q29 0 47 -18.5t18 -47.5q0 -25 -18.5 -45t-46.5 -20h-518q-29 0 -47.5 20.5 t-18.5 44.5zM319 1362q0 14 20.5 43t48.5 57.5t58 49t46 20.5q14 0 29.5 -6t23.5 -15l24 -26q14 -14 30.5 -32.5t31 -36t25 -32t10.5 -22.5q0 -18 -19.5 -32.5t-44.5 -14.5q-16 0 -31.5 6t-25.5 16l-53 64l-58 -64q-8 -10 -23.5 -16t-27.5 -6q-29 0 -46.5 14t-17.5 33z" />
<glyph unicode="&#xcb;" horiz-adv-x="876" d="M174 59v1129q0 25 18.5 45t47.5 20h518q29 0 47 -20.5t18 -44.5q0 -29 -18.5 -47.5t-46.5 -18.5h-453v-389h283q27 0 46 -20.5t19 -44.5q0 -29 -19.5 -47.5t-45.5 -18.5h-283v-477h453q29 0 47 -18.5t18 -47.5q0 -25 -18.5 -45t-46.5 -20h-518q-29 0 -47.5 20.5 t-18.5 44.5zM328 1384q0 33 23.5 57.5t58.5 24.5q33 0 58.5 -24.5t25.5 -57.5q0 -35 -26 -58t-58 -23q-35 0 -58.5 23.5t-23.5 57.5zM506 1384q0 33 25.5 57.5t58.5 24.5q35 0 58.5 -24.5t23.5 -57.5q0 -35 -23.5 -58t-58.5 -23q-33 0 -58.5 23.5t-25.5 57.5z" />
<glyph unicode="&#xcc;" horiz-adv-x="630" d="M174 1468q0 20 21.5 36t48.5 16q31 0 55 -21l178 -131q27 -14 27 -41q0 -18 -20.5 -34.5t-49.5 -16.5t-49 18l-190 140q-20 14 -21 34zM180 72q0 29 18.5 47t47.5 18h41v971h-41q-29 0 -47.5 18.5t-18.5 47.5q0 25 18.5 45t47.5 20h213q25 0 45 -20.5t20 -44.5 q0 -29 -20.5 -47.5t-44.5 -18.5h-41v-971h41q25 0 45 -18.5t20 -46.5q0 -25 -20.5 -45.5t-44.5 -20.5h-213q-29 0 -47.5 20.5t-18.5 45.5z" />
<glyph unicode="&#xcd;" horiz-adv-x="630" d="M174 72q0 29 18.5 47t47.5 18h41v971h-41q-29 0 -47.5 18.5t-18.5 47.5q0 25 18.5 45t47.5 20h213q25 0 45 -20.5t20 -44.5q0 -29 -20.5 -47.5t-44.5 -18.5h-41v-971h41q25 0 45 -18.5t20 -46.5q0 -25 -20.5 -45.5t-44.5 -20.5h-213q-29 0 -47.5 20.5t-18.5 45.5z M201 1317q0 27 26 41l179 131q25 20 55 20q27 0 48 -15t21 -36q0 -20 -20 -35l-191 -139q-23 -18 -49 -18q-29 0 -49 16.5t-20 34.5z" />
<glyph unicode="&#xce;" horiz-adv-x="649" d="M174 72q0 29 18.5 47t47.5 18h41v971h-41q-29 0 -47.5 18.5t-18.5 47.5q0 25 18.5 45t47.5 20h213q25 0 45 -20.5t20 -44.5q0 -29 -20.5 -47.5t-44.5 -18.5h-41v-971h41q25 0 45 -18.5t20 -46.5q0 -25 -20.5 -45.5t-44.5 -20.5h-213q-29 0 -47.5 20.5t-18.5 45.5z M176 1331q0 14 20.5 43t48 57.5t57.5 49t46 20.5q14 0 29.5 -6t23.5 -14l25 -27q14 -14 30.5 -32.5t31 -36t24.5 -32t10 -22.5q0 -18 -19.5 -32.5t-43.5 -14.5q-16 0 -31.5 6t-26.5 17l-53 63l-57 -63q-8 -10 -23.5 -16.5t-27.5 -6.5q-29 0 -46.5 14.5t-17.5 32.5z" />
<glyph unicode="&#xcf;" horiz-adv-x="641" d="M174 1370q0 31 23.5 56.5t58.5 25.5q33 0 57.5 -25.5t24.5 -56.5q0 -35 -24.5 -59.5t-57.5 -24.5q-35 0 -58.5 24.5t-23.5 59.5zM180 72q0 29 18.5 47t47.5 18h41v971h-41q-29 0 -47.5 18.5t-18.5 47.5q0 25 18.5 45t47.5 20h213q25 0 44 -20.5t19 -44.5 q0 -29 -19.5 -47.5t-43.5 -18.5h-41v-971h41q25 0 44 -18.5t19 -46.5q0 -25 -19.5 -45.5t-43.5 -20.5h-213q-29 0 -47.5 20.5t-18.5 45.5zM352 1370q0 31 25.5 56.5t56.5 25.5q35 0 59.5 -25.5t24.5 -56.5q0 -35 -24.5 -59.5t-59.5 -24.5q-31 0 -56.5 24.5t-25.5 59.5z" />
<glyph unicode="&#xd0;" horiz-adv-x="1085" d="M154 664q0 41 25.5 53t53.5 12h11v453q0 29 22.5 48t44.5 19h277q82 0 144.5 -34.5t108.5 -91t76.5 -126t49 -139.5t26.5 -133.5t8 -106.5t-8 -105t-26.5 -132t-49 -139.5t-76.5 -126t-108.5 -91t-144.5 -34.5h-254q-12 -4 -25 -4q-25 0 -45 20.5t-20 44.5v545 q-31 0 -60.5 11t-29.5 57zM375 121h213q86 0 140 59.5t86 141t44 164.5t12 132q0 31 -5 81.5t-17 105.5t-33.5 111.5t-52.5 100.5t-74 72.5t-100 28.5h-213v-389h176q29 0 47 -18.5t18 -46.5q0 -25 -18 -45.5t-47 -20.5h-176v-477z" />
<glyph unicode="&#xd1;" horiz-adv-x="1003" d="M174 53v1137q0 25 18.5 44t47.5 19q39 0 57 -34l438 -881v854q0 29 18.5 47t47.5 18t47 -18t18 -47v-1135q0 -25 -18.5 -45t-46.5 -20q-16 0 -31.5 10t-26.5 27q-59 119 -111 225t-104.5 210.5t-106.5 212t-116 230.5v-854q0 -29 -18.5 -47t-46.5 -18q-29 0 -47.5 18.5 t-18.5 46.5zM317 1333q0 23 6.5 49.5t21.5 50t40 39t64 15.5q37 0 62.5 -16.5t42.5 -37t28.5 -37t19.5 -16.5q-2 0 -2 2v7q0 8 1 20t3 23v4q0 23 15.5 37t44.5 14q23 0 42 -14.5t19 -34.5q0 -23 -4 -50.5t-18.5 -51t-39 -40t-65.5 -16.5q-37 0 -63.5 16.5t-44 37t-27.5 36.5 t-17 16q-6 0 -5 -15t-3 -34.5t-17 -35t-44 -15.5q-25 0 -42.5 15.5t-17.5 31.5z" />
<glyph unicode="&#xd2;" horiz-adv-x="1073" d="M113 625q0 94 23.5 206.5t75.5 211t135 165t202 66.5q117 0 199.5 -66.5t135 -165t77 -211t24.5 -206.5t-24.5 -208t-77 -212.5t-135 -164t-199.5 -65.5t-200 65.5t-135 164t-76.5 212t-24.5 208.5zM242 625q0 -72 17 -161t54 -169t95.5 -134.5t140.5 -54.5t140.5 54.5 t95 134.5t53 170t16.5 160t-18.5 158.5t-56.5 168.5t-95 135.5t-135 55.5t-136.5 -55.5t-96 -135.5t-56 -169t-18.5 -158zM367 1481q0 20 21.5 35.5t47.5 15.5q31 0 56 -21l178 -131q26 -14 26 -41q0 -18 -20.5 -34.5t-48.5 -16.5q-29 0 -49 19l-191 139q-20 14 -20 35z" />
<glyph unicode="&#xd3;" horiz-adv-x="1073" d="M113 625q0 94 23.5 206.5t75.5 211t135 165t202 66.5q117 0 199.5 -66.5t135 -165t77 -211t24.5 -206.5t-24.5 -208t-77 -212.5t-135 -164t-199.5 -65.5t-200 65.5t-135 164t-76.5 212t-24.5 208.5zM242 625q0 -72 17 -161t54 -169t95.5 -134.5t140.5 -54.5t140.5 54.5 t95 134.5t53 170t16.5 160t-18.5 158.5t-56.5 168.5t-95 135.5t-135 55.5t-136.5 -55.5t-96 -135.5t-56 -169t-18.5 -158zM377 1337q0 27 26 41l179 131q25 20 55 21q27 0 48.5 -15.5t21.5 -35.5t-21 -35l-190 -139q-23 -18 -50 -19q-29 0 -49 16.5t-20 34.5z" />
<glyph unicode="&#xd4;" horiz-adv-x="1073" d="M113 625q0 94 23.5 206.5t75.5 211t135 165t202 66.5q117 0 199.5 -66.5t135 -165t77 -211t24.5 -206.5t-24.5 -208t-77 -212.5t-135 -164t-199.5 -65.5t-200 65.5t-135 164t-76.5 212t-24.5 208.5zM242 625q0 -72 17 -161t54 -169t95.5 -134.5t140.5 -54.5t140.5 54.5 t95 134.5t53 170t16.5 160t-18.5 158.5t-56.5 168.5t-95 135.5t-135 55.5t-136.5 -55.5t-96 -135.5t-56 -169t-18.5 -158zM387 1343q0 14 20.5 43t48 58t57.5 49t46 20q14 0 29.5 -6t23.5 -14l25 -27q14 -14 30.5 -32.5t31 -36t24.5 -31.5t10 -23q0 -18 -19.5 -32.5 t-43.5 -14.5q-16 0 -31.5 6.5t-26.5 16.5l-53 63l-57 -63q-8 -10 -23.5 -16.5t-27.5 -6.5q-29 0 -46.5 14.5t-17.5 32.5z" />
<glyph unicode="&#xd5;" horiz-adv-x="1073" d="M113 625q0 94 23.5 206.5t75.5 211t135 165t202 66.5q117 0 199.5 -66.5t135 -165t77 -211t24.5 -206.5t-24.5 -208t-77 -212.5t-135 -164t-199.5 -65.5t-200 65.5t-135 164t-76.5 212t-24.5 208.5zM242 625q0 -72 17 -161t54 -169t95.5 -134.5t140.5 -54.5t140.5 54.5 t95 134.5t53 170t16.5 160t-18.5 158.5t-56.5 168.5t-95 135.5t-135 55.5t-136.5 -55.5t-96 -135.5t-56 -169t-18.5 -158zM346 1360q0 23 6 49.5t21.5 50t40 38.5t63.5 15q37 0 62.5 -16t43 -36.5t29 -37t19.5 -16.5q-2 0 -2 2v6q0 8 1 20.5t3 22.5v4q0 23 15.5 37t43.5 14 q23 0 42.5 -14t19.5 -35q0 -23 -4.5 -50.5t-18.5 -51t-38.5 -39.5t-65.5 -16q-37 0 -63.5 16t-44 36.5t-28 37t-16.5 16.5t-5 -15.5t-3 -35t-17.5 -34.5t-43.5 -15q-25 0 -42.5 15.5t-17.5 31.5z" />
<glyph unicode="&#xd6;" horiz-adv-x="1073" d="M113 625q0 94 23.5 206.5t75.5 211t135 165t202 66.5q117 0 199.5 -66.5t135 -165t77 -211t24.5 -206.5t-24.5 -208t-77 -212.5t-135 -164t-199.5 -65.5t-200 65.5t-135 164t-76.5 212t-24.5 208.5zM242 625q0 -72 17 -161t54 -169t95.5 -134.5t140.5 -54.5t140.5 54.5 t95 134.5t53 170t16.5 160t-18.5 158.5t-56.5 168.5t-95 135.5t-135 55.5t-136.5 -55.5t-96 -135.5t-56 -169t-18.5 -158zM373 1382q0 31 24.5 56.5t59.5 25.5q31 0 56.5 -25.5t25.5 -56.5q0 -35 -26 -59.5t-56 -24.5q-35 0 -59.5 25t-24.5 59zM553 1382q0 31 24.5 56.5 t57.5 25.5q35 0 59.5 -25.5t24.5 -56.5q0 -35 -24.5 -59.5t-59.5 -24.5q-33 0 -57.5 25t-24.5 59z" />
<glyph unicode="&#xd7;" horiz-adv-x="733" d="M143 461q0 23 17 43l145 143l-143 141q-18 18 -19 46q0 29 18.5 47t47.5 18q23 0 43 -16l141 -146l144 144q18 18 45 18t44 -19.5t17 -45.5q0 -16 -16.5 -40t-40 -48.5t-51 -50t-50.5 -48.5l140 -141q18 -18 18 -45q0 -25 -17.5 -44.5t-45.5 -19.5q-25 0 -43 19l-144 141 l-141 -143q-20 -16 -45 -17q-27 0 -45.5 17.5t-18.5 46.5z" />
<glyph unicode="&#xd8;" horiz-adv-x="1073" d="M113 625q0 94 23.5 206.5t75.5 211t135 165t202 66.5q37 0 75 -11.5t72 -27.5q12 4 21 4q29 0 46 -16.5t17 -46.5q55 -51 94 -118t64 -140.5t36 -149.5t11 -143q0 -94 -24.5 -208t-77 -212.5t-135 -164t-199.5 -65.5q-70 0 -121 25q-18 -23 -49 -23q-29 0 -47.5 18.5 t-18.5 47.5q0 2 6 27q-55 49 -94 115.5t-64.5 140t-36.5 150.5t-11 149zM242 625q0 -100 27.5 -213t92.5 -197l271 907q-20 8 -42 14.5t-42 6.5q-78 0 -136.5 -55.5t-96 -135.5t-56 -168.5t-18.5 -158.5zM469 123q33 -17 80 -17q82 0 140.5 54.5t95 134.5t53 170t16.5 160 q0 98 -24.5 205.5t-86.5 193.5q-23 -78 -54.5 -184.5t-66 -220t-68.5 -223t-60 -195.5z" />
<glyph unicode="&#xd9;" horiz-adv-x="1099" d="M174 344v850q0 25 18.5 45.5t47.5 20.5q27 0 46 -20.5t19 -45.5v-850q0 -117 74 -176t186 -59q115 0 187.5 58t72.5 177v850q0 25 20.5 45.5t45.5 20.5q29 0 47 -20.5t18 -45.5v-850q0 -90 -28.5 -157.5t-80.5 -114.5t-124 -71t-158 -24q-84 0 -155.5 25t-124 72 t-82 114.5t-29.5 155.5zM401 1485q0 20 21.5 35.5t48.5 15.5q31 0 55 -20l179 -132q26 -14 26 -41q0 -18 -20.5 -34.5t-48.5 -16.5q-29 0 -50 19l-190 139q-20 14 -21 35z" />
<glyph unicode="&#xda;" horiz-adv-x="1099" d="M174 344v850q0 25 18.5 45.5t47.5 20.5q27 0 46 -20.5t19 -45.5v-850q0 -117 74 -176t186 -59q115 0 187.5 58t72.5 177v850q0 25 20.5 45.5t45.5 20.5q29 0 47 -20.5t18 -45.5v-850q0 -90 -28.5 -157.5t-80.5 -114.5t-124 -71t-158 -24q-84 0 -155.5 25t-124 72 t-82 114.5t-29.5 155.5zM414 1333q0 27 26 41l178 131q25 20 56 21q27 0 48 -15.5t21 -35.5t-20 -35l-191 -140q-23 -18 -49 -18q-29 0 -49 16.5t-20 34.5z" />
<glyph unicode="&#xdb;" horiz-adv-x="1099" d="M174 344v850q0 25 18.5 45.5t47.5 20.5q27 0 46 -20.5t19 -45.5v-850q0 -117 74 -176t186 -59q115 0 187.5 58t72.5 177v850q0 25 20.5 45.5t45.5 20.5q29 0 47 -20.5t18 -45.5v-850q0 -90 -28.5 -157.5t-80.5 -114.5t-124 -71t-158 -24q-84 0 -155.5 25t-124 72 t-82 114.5t-29.5 155.5zM389 1339q0 14 20.5 43t48 57.5t57.5 49t46 20.5q14 0 29.5 -6t23.5 -14l25 -27q14 -14 30.5 -32.5t31 -36t24.5 -31.5t10 -23q0 -18 -19.5 -32.5t-43.5 -14.5q-16 0 -31.5 6.5t-26.5 16.5l-53 63l-57 -63q-8 -10 -23.5 -16.5t-27.5 -6.5 q-29 0 -46.5 14.5t-17.5 32.5z" />
<glyph unicode="&#xdc;" horiz-adv-x="1099" d="M174 344v850q0 25 18.5 45.5t47.5 20.5q27 0 46 -20.5t19 -45.5v-850q0 -117 74 -176t186 -59q115 0 187.5 58t72.5 177v850q0 25 20.5 45.5t45.5 20.5q29 0 47 -20.5t18 -45.5v-850q0 -90 -28.5 -157.5t-80.5 -114.5t-124 -71t-158 -24q-84 0 -155.5 25t-124 72 t-82 114.5t-29.5 155.5zM385 1343q0 31 23.5 56.5t58.5 25.5q33 0 58.5 -25.5t25.5 -56.5q0 -35 -25.5 -59t-58.5 -24q-35 0 -58.5 24.5t-23.5 58.5zM563 1343q0 31 25.5 56.5t58.5 25.5q35 0 58.5 -25.5t23.5 -56.5q0 -35 -23.5 -59t-58.5 -24q-33 0 -58.5 24.5t-25.5 58.5 z" />
<glyph unicode="&#xdd;" horiz-adv-x="839" d="M61 1188q0 25 18.5 45t47.5 20q37 0 57 -36q35 -68 66 -125.5t60.5 -111.5t60 -110.5t65.5 -124.5q55 111 124 232t126 235q20 41 59 41q29 0 47.5 -20.5t18.5 -44.5q0 -10 -27.5 -65.5t-67.5 -132.5t-84 -159.5t-79 -148.5l-51 -96v-529q0 -29 -18.5 -47t-47.5 -18 t-47 18.5t-18 46.5v531q-4 8 -11.5 17t-11.5 20v-2q-20 35 -49 89t-60.5 114.5t-63.5 122t-57.5 112.5t-41 86t-15.5 41zM293 1282q0 27 26 41l179 131q25 20 55 21q27 0 48.5 -15.5t21.5 -36.5q0 -20 -21 -34l-190 -140q-23 -18 -50 -18q-29 0 -49 16.5t-20 34.5z" />
<glyph unicode="&#xde;" horiz-adv-x="892" d="M174 53v1135q0 27 18.5 46t47.5 19t47 -19.5t18 -45.5v-197h193q76 0 143.5 -29.5t117.5 -80t79.5 -119t29.5 -144.5t-29.5 -143t-79.5 -117.5t-118 -79t-143 -28.5h-193v-197q0 -29 -18.5 -47t-46.5 -18q-29 0 -47.5 18.5t-18.5 46.5zM305 381h193q49 0 93 19.5t75.5 51 t51 74.5t19.5 92t-19.5 93.5t-51 77t-75.5 51t-93 18.5h-193v-477z" />
<glyph unicode="&#xdf;" horiz-adv-x="897" d="M174 51v961q0 109 70.5 161t171.5 52q57 0 109.5 -23.5t91 -63.5t61 -92.5t22.5 -111.5q0 -43 -13 -81t-31.5 -69.5t-40 -57.5t-40.5 -44v2q-12 -12 -14 -12l-2 2q10 -18 38 -46t62.5 -59.5t71.5 -65.5t66 -67v2q35 -41 55 -89t20 -103t-20.5 -106.5t-57 -90.5t-86 -61.5 t-106.5 -22.5q-82 0 -162 47t-137 109v-70q0 -25 -18.5 -44t-46.5 -19q-23 0 -43.5 19.5t-20.5 43.5zM303 213q10 8 21.5 14t23.5 6q20 0 45 -21.5t54.5 -48t67.5 -48t87 -21.5q61 0 101 46t40 106q0 53 -32.5 89t-89.5 91q-78 72 -135.5 136.5t-57.5 111.5q0 33 22.5 60.5 t49 57t49 64.5t22.5 78q0 33 -12 62.5t-33.5 51t-49 35t-60.5 13.5q-47 0 -80 -18.5t-33 -65.5v-799z" />
<glyph unicode="&#xe0;" horiz-adv-x="909" d="M92 344q0 70 25.5 136.5t72 117.5t108.5 82t138 31q63 0 121.5 -24.5t106.5 -65.5v14q0 25 18 45t45 20q29 0 47.5 -20.5t18.5 -44.5v-578q0 -29 -18.5 -47t-47.5 -18q-27 0 -45 18.5t-18 46.5v9q-47 -41 -105.5 -66t-122.5 -25q-76 0 -138 31t-108.5 82t-72 117.5 t-25.5 138.5zM221 344q0 -47 16.5 -90t45 -77t67.5 -53.5t86 -19.5t87 19.5t67.5 53.5t43 77t15.5 90q0 45 -15.5 88t-43 77t-67.5 53.5t-87 19.5t-86 -19.5t-67.5 -53.5t-45 -77t-16.5 -88zM250 942q0 20 21.5 35.5t47.5 15.5q31 0 56 -20l178 -131q27 -14 27 -41 q0 -18 -20.5 -34.5t-49.5 -16.5t-49 18l-191 139q-20 14 -20 35z" />
<glyph unicode="&#xe1;" horiz-adv-x="909" d="M92 344q0 70 25.5 136.5t72 117.5t108.5 82t138 31q63 0 121.5 -24.5t106.5 -65.5v14q0 25 18 45t45 20q29 0 47.5 -20.5t18.5 -44.5v-578q0 -29 -18.5 -47t-47.5 -18q-27 0 -45 18.5t-18 46.5v9q-47 -41 -105.5 -66t-122.5 -25q-76 0 -138 31t-108.5 82t-72 117.5 t-25.5 138.5zM221 344q0 -47 16.5 -90t45 -77t67.5 -53.5t86 -19.5t87 19.5t67.5 53.5t43 77t15.5 90q0 45 -15.5 88t-43 77t-67.5 53.5t-87 19.5t-86 -19.5t-67.5 -53.5t-45 -77t-16.5 -88zM283 788q0 27 26 41l178 132q25 20 56 20q27 0 48 -15.5t21 -35.5t-20 -35 l-191 -139q-23 -18 -49 -19q-29 0 -49 16.5t-20 34.5z" />
<glyph unicode="&#xe2;" horiz-adv-x="909" d="M92 344q0 70 25.5 136.5t72 117.5t108.5 82t138 31q63 0 121.5 -24.5t106.5 -65.5v14q0 25 18 45t45 20q29 0 47.5 -20.5t18.5 -44.5v-578q0 -29 -18.5 -47t-47.5 -18q-27 0 -45 18.5t-18 46.5v9q-47 -41 -105.5 -66t-122.5 -25q-76 0 -138 31t-108.5 82t-72 117.5 t-25.5 138.5zM221 344q0 -47 16.5 -90t45 -77t67.5 -53.5t86 -19.5t87 19.5t67.5 53.5t43 77t15.5 90q0 45 -15.5 88t-43 77t-67.5 53.5t-87 19.5t-86 -19.5t-67.5 -53.5t-45 -77t-16.5 -88zM272 786q0 14 20.5 43t48.5 57.5t57.5 49t45.5 20.5q14 0 29.5 -6t24.5 -14 l24 -27q14 -14 30.5 -32.5t31 -36t24.5 -31.5t10 -23q0 -18 -19 -32.5t-44 -14.5q-16 0 -31.5 6.5t-25.5 16.5l-54 63l-57 -63q-8 -10 -23.5 -16.5t-27.5 -6.5q-29 0 -46.5 14.5t-17.5 32.5z" />
<glyph unicode="&#xe3;" horiz-adv-x="909" d="M92 344q0 70 25.5 136.5t72 117.5t108.5 82t138 31q63 0 121.5 -24.5t106.5 -65.5v14q0 25 18 45t45 20q29 0 47.5 -20.5t18.5 -44.5v-578q0 -29 -18.5 -47t-47.5 -18q-27 0 -45 18.5t-18 46.5v9q-47 -41 -105.5 -66t-122.5 -25q-76 0 -138 31t-108.5 82t-72 117.5 t-25.5 138.5zM221 344q0 -47 16.5 -90t45 -77t67.5 -53.5t86 -19.5t87 19.5t67.5 53.5t43 77t15.5 90q0 45 -15.5 88t-43 77t-67.5 53.5t-87 19.5t-86 -19.5t-67.5 -53.5t-45 -77t-16.5 -88zM233 793q0 23 6.5 49t21.5 49.5t40 39t64 15.5q37 0 62.5 -16.5t42.5 -37 t28.5 -36.5t19.5 -16q-2 0 -2 2v6q0 8 1 20.5t3 22.5v4q0 23 15.5 37t44.5 14q23 0 42 -14t19 -35q0 -23 -4 -50.5t-18.5 -51t-39 -40t-65.5 -16.5q-37 0 -63.5 16.5t-44 37t-27.5 37t-17 16.5q-6 0 -5 -15.5t-3 -35t-17 -35t-44 -15.5q-25 0 -42.5 16t-17.5 32z" />
<glyph unicode="&#xe4;" horiz-adv-x="909" d="M92 344q0 70 25.5 136.5t72 117.5t108.5 82t138 31q63 0 121.5 -24.5t106.5 -65.5v14q0 25 18 45t45 20q29 0 47.5 -20.5t18.5 -44.5v-578q0 -29 -18.5 -47t-47.5 -18q-27 0 -45 18.5t-18 46.5v9q-47 -41 -105.5 -66t-122.5 -25q-76 0 -138 31t-108.5 82t-72 117.5 t-25.5 138.5zM221 344q0 -47 16.5 -90t45 -77t67.5 -53.5t86 -19.5t87 19.5t67.5 53.5t43 77t15.5 90q0 45 -15.5 88t-43 77t-67.5 53.5t-87 19.5t-86 -19.5t-67.5 -53.5t-45 -77t-16.5 -88zM264 823q0 31 23.5 56.5t58.5 25.5q31 0 56.5 -25.5t25.5 -56.5 q0 -35 -25.5 -58.5t-56.5 -23.5q-35 0 -58.5 23.5t-23.5 58.5zM440 823q0 31 24.5 56.5t57.5 25.5q35 0 58.5 -25.5t23.5 -56.5q0 -35 -23.5 -58.5t-58.5 -23.5q-33 0 -57.5 23.5t-24.5 58.5z" />
<glyph unicode="&#xe5;" horiz-adv-x="909" d="M92 344q0 104 53.5 195.5t145.5 136.5q-39 49 -39 112q0 74 51 125.5t125 51.5q72 0 123 -51.5t51 -125.5q0 -31 -10 -57t-27 -49q29 -10 52.5 -26.5t46.5 -34.5v14q0 25 18 45t45 20q29 0 47.5 -20.5t18.5 -44.5v-578q0 -29 -18.5 -47t-47.5 -18q-27 0 -45 18.5 t-18 46.5v9q-47 -41 -105.5 -66t-122.5 -25q-76 0 -138 31t-108.5 82t-72 117.5t-25.5 138.5zM221 344q0 -47 16.5 -90t45 -77t67.5 -53.5t86 -19.5t87 19.5t67.5 53.5t43 77t15.5 90q0 45 -15.5 88t-43 77t-67.5 53.5t-87 19.5t-86 -19.5t-67.5 -53.5t-45 -77t-16.5 -88z M348 788q0 -29 17.5 -51t46.5 -28q8 2 24 2h10q25 6 42.5 27.5t17.5 49.5q0 33 -22.5 56.5t-55.5 23.5q-35 0 -57.5 -23.5t-22.5 -56.5z" />
<glyph unicode="&#xe6;" horiz-adv-x="1449" d="M92 342q0 70 25.5 136.5t70.5 116.5t107.5 81t138.5 31q68 0 120 -19.5t99 -64.5v6q0 25 19.5 45t44.5 20q29 0 47 -20.5t18 -44.5v-2q90 80 215 80q74 0 137.5 -31t108.5 -81t70.5 -116.5t25.5 -136.5q0 -29 -18 -47.5t-47 -18.5h-481q18 -72 72.5 -123t131.5 -51 q119 0 187 95q20 31 53 30q27 0 45 -18.5t18 -44.5q0 -12 -8 -33q-45 -78 -126 -118t-169 -40q-127 0 -215 82v-2q0 -29 -18.5 -47t-46.5 -18q-25 0 -44.5 18.5t-19.5 46.5v6q-92 -86 -219 -86q-76 0 -138.5 31t-107.5 82t-70.5 117.5t-25.5 138.5zM221 342q0 -47 15.5 -90 t43 -77t67.5 -53.5t87 -19.5t86 19.5t67.5 53.5t45 77t16.5 90q0 45 -16.5 88t-45 76t-67.5 52.5t-86 19.5t-86 -19.5t-67.5 -52.5t-44 -76t-15.5 -88zM793 406h407q-18 72 -72.5 122t-130.5 50q-78 0 -132 -50.5t-72 -121.5z" />
<glyph unicode="&#xe7;" horiz-adv-x="782" d="M92 344q0 70 25.5 136.5t70.5 117.5t107.5 82t138.5 31q45 0 96.5 -16.5t95.5 -44t73.5 -62.5t29.5 -72q0 -29 -18.5 -47t-46.5 -18q-12 0 -26.5 5t-23.5 17q-29 49 -77 79t-103 30q-47 0 -86 -19.5t-67.5 -53.5t-44 -77t-15.5 -88q0 -47 15.5 -90t44 -77t67.5 -53.5 t86 -19.5q51 0 100.5 27t71.5 72v-2q20 39 60 39q29 0 48 -18.5t19 -47.5q0 -20 -12 -35q-47 -72 -119 -117t-162 -47q-4 -23 -9 -47t-7 -47q23 10 47.5 19.5t52.5 9.5q47 0 72 -32t25 -75q0 -39 -21.5 -80.5t-55.5 -76.5t-75 -57.5t-80 -22.5q-14 0 -24.5 12.5t-10.5 28.5 q0 14 10.5 22.5t24.5 10.5q25 4 51.5 20t50 38.5t39 50.5t15.5 54q0 12 -3 21.5t-20 9.5q-20 0 -42.5 -10t-43 -21.5t-38 -21.5t-25.5 -10q-16 0 -26.5 12t-10.5 29q0 29 9 80t17 92q-61 12 -110 47t-85 83t-55.5 107.5t-19.5 122.5z" />
<glyph unicode="&#xe8;" d="M92 344q0 70 25.5 136.5t72 117.5t108.5 82t138 31t138.5 -31t108.5 -82t71.5 -117.5t25.5 -136.5q0 -29 -19.5 -47t-45.5 -18h-484q18 -74 72.5 -124.5t132.5 -50.5q119 0 187 95q25 31 53 30q29 0 47 -18t18 -45q0 -10 -3 -18.5t-7 -14.5q-45 -80 -126 -119t-169 -39 q-76 0 -138 31t-108.5 82t-72 117.5t-25.5 138.5zM231 408h410q-18 72 -72.5 123t-132.5 51q-76 0 -130 -51.5t-75 -122.5zM276 911q0 20 21.5 36t48.5 16q31 0 55 -21l179 -131q26 -14 26 -41q0 -18 -20.5 -34.5t-48.5 -16.5q-29 0 -50 18l-190 140q-20 14 -21 34z" />
<glyph unicode="&#xe9;" d="M92 344q0 70 25.5 136.5t72 117.5t108.5 82t138 31t138.5 -31t108.5 -82t71.5 -117.5t25.5 -136.5q0 -29 -19.5 -47t-45.5 -18h-484q18 -74 72.5 -124.5t132.5 -50.5q119 0 187 95q25 31 53 30q29 0 47 -18t18 -45q0 -10 -3 -18.5t-7 -14.5q-45 -80 -126 -119t-169 -39 q-76 0 -138 31t-108.5 82t-72 117.5t-25.5 138.5zM231 408h410q-18 72 -72.5 123t-132.5 51q-76 0 -130 -51.5t-75 -122.5zM250 774q0 27 26 41l179 131q25 20 55 21q27 0 48.5 -15.5t21.5 -36.5q0 -20 -21 -34l-190 -140q-23 -18 -50 -18q-29 0 -49 16.5t-20 34.5z" />
<glyph unicode="&#xea;" d="M92 344q0 70 25.5 136.5t72 117.5t108.5 82t138 31t138.5 -31t108.5 -82t71.5 -117.5t25.5 -136.5q0 -29 -19.5 -47t-45.5 -18h-484q18 -74 72.5 -124.5t132.5 -50.5q119 0 187 95q25 31 53 30q29 0 47 -18t18 -45q0 -10 -3 -18.5t-7 -14.5q-45 -80 -126 -119t-169 -39 q-76 0 -138 31t-108.5 82t-72 117.5t-25.5 138.5zM231 408h410q-18 72 -72.5 123t-132.5 51q-76 0 -130 -51.5t-75 -122.5zM266 782q0 14 20.5 43t48 57.5t57.5 49t46 20.5q14 0 29.5 -6t24.5 -14l24 -27q14 -14 30.5 -32.5t31 -36t24.5 -31.5t10 -23q0 -18 -19.5 -32.5 t-43.5 -14.5q-16 0 -31.5 6.5t-25.5 16.5l-54 63l-57 -63q-8 -10 -23.5 -16.5t-27.5 -6.5q-29 0 -46.5 14.5t-17.5 32.5z" />
<glyph unicode="&#xeb;" d="M92 344q0 70 25.5 136.5t72 117.5t108.5 82t138 31t138.5 -31t108.5 -82t71.5 -117.5t25.5 -136.5q0 -29 -19.5 -47t-45.5 -18h-484q18 -74 72.5 -124.5t132.5 -50.5q119 0 187 95q25 31 53 30q29 0 47 -18t18 -45q0 -10 -3 -18.5t-7 -14.5q-45 -80 -126 -119t-169 -39 q-76 0 -138 31t-108.5 82t-72 117.5t-25.5 138.5zM231 408h410q-18 72 -72.5 123t-132.5 51q-76 0 -130 -51.5t-75 -122.5zM262 819q0 31 23.5 56.5t58.5 25.5q31 0 55.5 -25.5t24.5 -56.5q0 -35 -24.5 -58.5t-55.5 -23.5q-35 0 -58.5 23.5t-23.5 58.5zM438 819 q0 31 24.5 56.5t57.5 25.5q35 0 58.5 -25.5t23.5 -56.5q0 -35 -23.5 -58.5t-58.5 -23.5q-33 0 -57.5 23.5t-24.5 58.5z" />
<glyph unicode="&#xec;" horiz-adv-x="344" d="M-29 901q0 20 21.5 35.5t48.5 15.5q31 0 55 -20l178 -131q27 -14 27 -41q0 -18 -20.5 -34.5t-49.5 -16.5t-49 18l-190 139q-20 14 -21 35zM57 53v576q0 25 17.5 45t46.5 20q25 0 44 -20.5t19 -44.5v-576q0 -25 -19.5 -45t-43.5 -20q-29 0 -46.5 20.5t-17.5 44.5z" />
<glyph unicode="&#xed;" horiz-adv-x="344" d="M143 788q0 27 27 41l178 132q25 20 55 20q27 0 48.5 -15.5t21.5 -35.5t-20 -35l-191 -139q-23 -18 -49 -19q-29 0 -49.5 16.5t-20.5 34.5zM188 53v576q0 25 18.5 45t45.5 20q25 0 45 -20.5t20 -44.5v-576q0 -25 -20.5 -45t-44.5 -20q-27 0 -45.5 20.5t-18.5 44.5z" />
<glyph unicode="&#xee;" horiz-adv-x="344" d="M20 770q0 14 20.5 43t48.5 57.5t58 49t46 20.5q14 0 29.5 -6t23.5 -14l24 -27q14 -14 30.5 -32.5t31 -36t25 -32t10.5 -22.5q0 -18 -19.5 -32.5t-44.5 -14.5q-16 0 -31.5 6t-25.5 16l-53 64l-58 -64q-8 -10 -23.5 -16t-27.5 -6q-29 0 -46.5 14.5t-17.5 32.5zM129 53v576 q0 25 18.5 45t47.5 20q23 0 43 -20.5t20 -44.5v-576q0 -25 -20.5 -45t-42.5 -20q-29 0 -47.5 20.5t-18.5 44.5z" />
<glyph unicode="&#xef;" horiz-adv-x="344" d="M33 799q0 31 23.5 56.5t58.5 25.5q33 0 57.5 -26t24.5 -56q0 -35 -25 -58.5t-57 -23.5q-35 0 -58.5 23.5t-23.5 58.5zM139 53v576q0 25 18.5 45t45.5 20q25 0 45 -20.5t20 -44.5v-576q0 -25 -20.5 -45t-44.5 -20q-27 0 -45.5 20.5t-18.5 44.5zM209 799q0 31 25.5 56.5 t56.5 25.5q35 0 58.5 -25.5t23.5 -56.5q0 -35 -23.5 -58.5t-58.5 -23.5q-31 0 -56.5 23.5t-25.5 58.5z" />
<glyph unicode="&#xf0;" horiz-adv-x="944" d="M141 342q0 70 26 136.5t71 116.5t107.5 81t137.5 31q117 0 205 -70q-14 92 -46 182t-93 160q-16 -16 -38 -36.5t-44.5 -39t-41.5 -32t-34 -13.5q-27 0 -45 18.5t-18 47.5q0 12 12 29.5t29.5 36t39 36.5t40.5 35q-35 16 -71 27.5t-69 11.5h-14q-27 0 -51.5 14t-24.5 51 q0 25 18.5 45.5t45.5 20.5q147 0 268 -80q12 12 26.5 25.5t30 24.5t28.5 18.5t23 7.5q27 0 45.5 -20.5t18.5 -43.5q0 -27 -25.5 -53.5t-52.5 -46.5q51 -53 92 -141q35 -76 63.5 -197t28.5 -301q0 -84 -20.5 -164t-62 -144.5t-107.5 -103.5t-156 -39q-76 0 -138 31t-107 82 t-71 117.5t-26 138.5zM270 342q0 -47 15.5 -90t44 -77t67.5 -53.5t86 -19.5q49 0 89 20.5t68 54.5t43 79t15 92q0 45 -16 87t-45 74t-68 50.5t-86 18.5t-86 -19.5t-67.5 -52.5t-44 -76t-15.5 -88z" />
<glyph unicode="&#xf1;" d="M143 55v580q0 29 18.5 47t45.5 18q25 0 43 -16t22 -39q37 31 83.5 49.5t99.5 18.5q68 0 120 -27t88.5 -72t55 -101t18.5 -118v-338q0 -29 -20.5 -47t-44.5 -18q-27 0 -45.5 18.5t-18.5 46.5v338q0 37 -9 71t-28.5 59.5t-48 42t-67.5 16.5q-49 0 -84 -21.5t-56.5 -58.5 t-32 -85t-10.5 -100v-264q0 -29 -18 -47t-47 -18q-27 0 -45.5 18.5t-18.5 46.5zM240 819q0 23 6 49.5t21.5 50t40 39t63.5 15.5q37 0 62.5 -16.5t43 -37t28.5 -37t19 -16.5q-2 0 -2 2v6q0 8 1 20.5t3 23.5v4q0 23 15.5 37t44.5 14q23 0 42 -14.5t19 -34.5q0 -23 -4 -50.5 t-18.5 -51t-39 -40t-65.5 -16.5q-37 0 -63.5 16.5t-44 37t-27.5 36.5t-16 16t-5 -15t-3.5 -34.5t-17.5 -35t-44 -15.5q-25 0 -42 15.5t-17 31.5z" />
<glyph unicode="&#xf2;" d="M92 346q0 70 25.5 136.5t72 117.5t108.5 82t138 31t138.5 -31t108.5 -82t71.5 -117.5t25.5 -136.5q0 -72 -25.5 -138.5t-71.5 -117.5t-108.5 -82t-138.5 -31t-138 31t-108.5 82t-72 117.5t-25.5 138.5zM221 346q0 -47 16.5 -90t45 -77t67.5 -53.5t86 -19.5t87 19.5 t67.5 53.5t43 77t15.5 90q0 45 -15.5 88t-43 76t-67.5 52.5t-87 19.5t-86 -19.5t-67.5 -52.5t-45 -76t-16.5 -88zM264 944q0 20 21.5 35.5t48.5 15.5q31 0 55 -20l178 -131q27 -14 27 -41q0 -18 -20.5 -34.5t-49.5 -16.5t-49 18l-190 139q-20 14 -21 35z" />
<glyph unicode="&#xf3;" d="M92 346q0 70 25.5 136.5t72 117.5t108.5 82t138 31t138.5 -31t108.5 -82t71.5 -117.5t25.5 -136.5q0 -72 -25.5 -138.5t-71.5 -117.5t-108.5 -82t-138.5 -31t-138 31t-108.5 82t-72 117.5t-25.5 138.5zM221 346q0 -47 16.5 -90t45 -77t67.5 -53.5t86 -19.5t87 19.5 t67.5 53.5t43 77t15.5 90q0 45 -15.5 88t-43 76t-67.5 52.5t-87 19.5t-86 -19.5t-67.5 -52.5t-45 -76t-16.5 -88zM236 799q0 27 26 41l178 131q25 20 56 20q27 0 48 -15t21 -36q0 -20 -20 -35l-191 -139q-23 -18 -49 -18q-29 0 -49 16.5t-20 34.5z" />
<glyph unicode="&#xf4;" d="M92 346q0 70 25.5 136.5t72 117.5t108.5 82t138 31t138.5 -31t108.5 -82t71.5 -117.5t25.5 -136.5q0 -72 -25.5 -138.5t-71.5 -117.5t-108.5 -82t-138.5 -31t-138 31t-108.5 82t-72 117.5t-25.5 138.5zM221 346q0 -47 16.5 -90t45 -77t67.5 -53.5t86 -19.5t87 19.5 t67.5 53.5t43 77t15.5 90q0 45 -15.5 88t-43 76t-67.5 52.5t-87 19.5t-86 -19.5t-67.5 -52.5t-45 -76t-16.5 -88zM266 793q0 14 20.5 42.5t48 57.5t57.5 49.5t46 20.5q14 0 29.5 -6.5t24.5 -14.5l24 -27q14 -14 30.5 -32.5t31 -36t24.5 -31.5t10 -22q0 -18 -19.5 -33 t-43.5 -15q-16 0 -31.5 6.5t-25.5 16.5l-54 63l-57 -63q-8 -10 -23.5 -16.5t-27.5 -6.5q-29 0 -46.5 14.5t-17.5 33.5z" />
<glyph unicode="&#xf5;" d="M92 346q0 70 25.5 136.5t72 117.5t108.5 82t138 31t138.5 -31t108.5 -82t71.5 -117.5t25.5 -136.5q0 -72 -25.5 -138.5t-71.5 -117.5t-108.5 -82t-138.5 -31t-138 31t-108.5 82t-72 117.5t-25.5 138.5zM221 346q0 -47 16.5 -90t45 -77t67.5 -53.5t86 -19.5t87 19.5 t67.5 53.5t43 77t15.5 90q0 45 -15.5 88t-43 76t-67.5 52.5t-87 19.5t-86 -19.5t-67.5 -52.5t-45 -76t-16.5 -88zM231 797q0 23 6.5 49t21.5 50t40 39t63 15q37 0 63 -16t43 -36.5t28.5 -37t19.5 -16.5q-2 0 -2 2v6q0 8 1 20.5t3 22.5v4q0 23 15.5 37t44.5 14q23 0 42 -14 t19 -35q0 -23 -4 -50.5t-18.5 -51t-39 -40t-65.5 -16.5q-37 0 -63.5 16.5t-44 37t-27.5 37t-17 16.5q-6 0 -5 -15.5t-3 -35t-17 -34.5t-44 -15q-25 0 -42.5 15.5t-17.5 31.5z" />
<glyph unicode="&#xf6;" d="M92 346q0 70 25.5 136.5t72 117.5t108.5 82t138 31t138.5 -31t108.5 -82t71.5 -117.5t25.5 -136.5q0 -72 -25.5 -138.5t-71.5 -117.5t-108.5 -82t-138.5 -31t-138 31t-108.5 82t-72 117.5t-25.5 138.5zM221 346q0 -47 16.5 -90t45 -77t67.5 -53.5t86 -19.5t87 19.5 t67.5 53.5t43 77t15.5 90q0 45 -15.5 88t-43 76t-67.5 52.5t-87 19.5t-86 -19.5t-67.5 -52.5t-45 -76t-16.5 -88zM270 819q0 31 23.5 56.5t58.5 25.5q31 0 55.5 -25.5t24.5 -56.5q0 -35 -24.5 -58.5t-55.5 -23.5q-35 0 -58.5 23.5t-23.5 58.5zM446 819q0 31 25 56.5t57 25.5 q35 0 58.5 -25.5t23.5 -56.5q0 -35 -23.5 -58.5t-58.5 -23.5q-33 0 -57.5 23.5t-24.5 58.5z" />
<glyph unicode="&#xf7;" horiz-adv-x="743" d="M141 653q0 27 18.5 45.5t47.5 18.5h375q27 0 44 -18.5t17 -45.5q0 -25 -17.5 -45t-43.5 -20h-375q-29 0 -47.5 20.5t-18.5 44.5zM311 492q0 31 23.5 56t58.5 25q33 0 57.5 -25.5t24.5 -55.5q0 -35 -24.5 -58.5t-57.5 -23.5q-35 0 -58.5 23.5t-23.5 58.5zM311 811 q0 31 23.5 56.5t58.5 25.5q33 0 57.5 -25.5t24.5 -56.5q0 -35 -24.5 -58.5t-57.5 -23.5q-35 0 -58.5 23.5t-23.5 58.5z" />
<glyph unicode="&#xf8;" horiz-adv-x="993" d="M162 346q0 70 25.5 136.5t71.5 117.5t108.5 82t138.5 31q100 0 182 -60q16 18 33.5 33.5t38.5 15.5q27 0 45 -18t18 -47q0 -18 -13 -38.5t-30 -37.5q33 -47 50.5 -102.5t17.5 -112.5q0 -72 -25.5 -138.5t-70.5 -117.5t-107.5 -82t-138.5 -31q-98 0 -180 58 q-16 -18 -33.5 -34.5t-40.5 -16.5q-29 0 -47.5 19.5t-18.5 43.5q0 16 13.5 37.5t29.5 40.5q-68 102 -67 221zM291 346q0 -29 8 -60.5t20 -60.5q74 86 141.5 163t145.5 167q-20 10 -49 19.5t-51 9.5q-47 0 -86 -19.5t-67.5 -53.5t-45 -77t-16.5 -88zM408 133 q20 -10 47.5 -18.5t50.5 -8.5q47 0 87 19.5t67.5 53.5t43 77t15.5 90q0 29 -6 58.5t-21 56.5z" />
<glyph unicode="&#xf9;" d="M143 291v338q0 25 18.5 45t47.5 20q27 0 45 -20.5t18 -44.5v-338q0 -37 9.5 -71t29 -60.5t48 -43t67.5 -16.5q55 0 91 26t55.5 69t27.5 100t8 119v215q0 25 18.5 45t45.5 20q25 0 45 -20.5t20 -44.5v-580q0 -29 -20.5 -46t-44.5 -17q-25 0 -43.5 17t-20.5 40 q-37 -33 -83 -52.5t-99 -19.5q-68 0 -121 27t-89 72t-54.5 102t-18.5 119zM244 895q0 20 21.5 35.5t47.5 15.5q31 0 56 -20l178 -131q26 -14 26 -41q0 -18 -20.5 -35t-48.5 -17q-29 0 -49 19l-191 139q-20 14 -20 35z" />
<glyph unicode="&#xfa;" d="M143 291v338q0 25 18.5 45t47.5 20q27 0 45 -20.5t18 -44.5v-338q0 -37 9.5 -71t29 -60.5t48 -43t67.5 -16.5q55 0 91 26t55.5 69t27.5 100t8 119v215q0 25 18.5 45t45.5 20q25 0 45 -20.5t20 -44.5v-580q0 -29 -20.5 -46t-44.5 -17q-25 0 -43.5 17t-20.5 40 q-37 -33 -83 -52.5t-99 -19.5q-68 0 -121 27t-89 72t-54.5 102t-18.5 119zM309 754q0 27 27 41l178 131q25 20 55 20q27 0 48.5 -15.5t21.5 -35.5t-21 -35l-190 -139q-23 -18 -49 -19q-29 0 -49.5 17t-20.5 35z" />
<glyph unicode="&#xfb;" d="M143 291v338q0 25 18.5 45t47.5 20q27 0 45 -20.5t18 -44.5v-338q0 -37 9.5 -71t29 -60.5t48 -43t67.5 -16.5q55 0 91 26t55.5 69t27.5 100t8 119v215q0 25 18.5 45t45.5 20q25 0 45 -20.5t20 -44.5v-580q0 -29 -20.5 -46t-44.5 -17q-25 0 -43.5 17t-20.5 40 q-37 -33 -83 -52.5t-99 -19.5q-68 0 -121 27t-89 72t-54.5 102t-18.5 119zM270 788q0 14 20.5 43t48.5 58t57.5 49t45.5 20q14 0 29.5 -6t24.5 -14l24 -27q14 -14 30.5 -32.5t31 -36t24.5 -31.5t10 -23q0 -18 -19 -32.5t-44 -14.5q-16 0 -31.5 6.5t-25.5 16.5l-54 63 l-57 -63q-8 -10 -23.5 -16.5t-27.5 -6.5q-29 0 -46.5 14.5t-17.5 32.5z" />
<glyph unicode="&#xfc;" d="M143 291v338q0 25 18.5 45t47.5 20q27 0 45 -20.5t18 -44.5v-338q0 -37 9.5 -71t29 -60.5t48 -43t67.5 -16.5q55 0 91 26t55.5 69t27.5 100t8 119v215q0 25 18.5 45t45.5 20q25 0 45 -20.5t20 -44.5v-580q0 -29 -20.5 -46t-44.5 -17q-25 0 -43.5 17t-20.5 40 q-37 -33 -83 -52.5t-99 -19.5q-68 0 -121 27t-89 72t-54.5 102t-18.5 119zM266 793q0 31 23.5 56t58.5 25q33 0 57.5 -25.5t24.5 -55.5q0 -35 -24.5 -58.5t-57.5 -23.5q-35 0 -58.5 23.5t-23.5 58.5zM442 793q0 31 26 56t56 25q35 0 58.5 -25t23.5 -56q0 -35 -23.5 -58.5 t-58.5 -23.5q-31 0 -56.5 23.5t-25.5 58.5z" />
<glyph unicode="&#xfd;" horiz-adv-x="696" d="M61 635q0 29 18.5 47t47.5 18q18 0 34.5 -12t24.5 -29l183 -442q45 113 89 220.5t85 219.5v-2q8 23 26.5 34t34.5 11q29 0 47.5 -18t18.5 -47q0 -4 -26 -72.5t-64.5 -171t-86 -222.5t-88 -227.5t-71.5 -185.5t-39 -96v2q-6 -16 -22.5 -28.5t-36.5 -12.5q-25 0 -45.5 20.5 t-20.5 43.5q0 14 9 42.5t23.5 64.5t31 77t32.5 78l39 96q-12 29 -34.5 83t-50 118.5t-55.5 133t-51.5 125t-38 93.5t-14.5 39zM225 764q0 27 27 41l178 131q25 20 55 20q27 0 48.5 -15t21.5 -36q0 -20 -20 -35l-191 -139q-23 -18 -49 -18q-29 0 -49.5 16.5t-20.5 34.5z" />
<glyph unicode="&#xfe;" horiz-adv-x="909" d="M143 -309v1464q0 27 18.5 45.5t45.5 18.5q29 0 47 -18.5t18 -45.5v-537q47 41 104.5 66t123.5 25q76 0 138 -31t108.5 -82t72 -117.5t25.5 -136.5q0 -72 -25.5 -138.5t-72 -117.5t-109 -82t-137.5 -31q-70 0 -125.5 21.5t-102.5 68.5v-372q0 -25 -18 -44.5t-47 -19.5 q-27 0 -45.5 19.5t-18.5 44.5zM285 342q0 -47 15 -90t44 -76t69 -53.5t87 -20.5t86 20.5t67.5 53.5t45 76t16.5 90q0 45 -16.5 88t-45 77t-67.5 53.5t-86 19.5t-87 -19.5t-69 -53.5t-44 -77t-15 -88z" />
<glyph unicode="&#xff;" horiz-adv-x="696" d="M61 635q0 29 18.5 47t47.5 18q18 0 34.5 -12t24.5 -29l183 -442q45 113 89 220.5t85 219.5v-2q8 23 26.5 34t34.5 11q29 0 47.5 -18t18.5 -47q0 -4 -26 -72.5t-64.5 -171t-86 -222.5t-88 -227.5t-71.5 -185.5t-39 -96v2q-6 -16 -22.5 -28.5t-36.5 -12.5q-25 0 -45.5 20.5 t-20.5 43.5q0 14 9 42.5t23.5 64.5t31 77t32.5 78l39 96q-12 29 -34.5 83t-50 118.5t-55.5 133t-51.5 125t-38 93.5t-14.5 39zM184 793q0 31 23.5 56t58.5 25q33 0 57.5 -25.5t24.5 -55.5q0 -35 -24.5 -58.5t-57.5 -23.5q-35 0 -58.5 23.5t-23.5 58.5zM362 793q0 31 25 56 t55 25q35 0 58.5 -25t23.5 -56q0 -35 -23.5 -58.5t-58.5 -23.5q-31 0 -55.5 23.5t-24.5 58.5z" />
<glyph unicode="&#x152;" horiz-adv-x="1599" d="M113 643q0 94 27.5 207t81.5 210t136 162.5t191 65.5q98 0 174 -52t129 -126v74q0 25 18.5 45t47.5 20h518q25 0 45 -20.5t20 -44.5q0 -29 -20.5 -47.5t-44.5 -18.5h-453v-387h281q29 0 47 -20.5t18 -44.5q0 -29 -18.5 -47.5t-46.5 -18.5h-281v-475h453q25 0 45 -18.5 t20 -47.5q0 -25 -20.5 -45t-44.5 -20h-518q-29 0 -47.5 20.5t-18.5 44.5v115q-53 -78 -128 -129t-175 -51q-109 0 -191 66.5t-136 165t-81.5 211t-27.5 206.5zM244 643q0 -72 18.5 -161t56 -169t95 -134t135.5 -54q74 0 130 49t95 122t58.5 153.5t19.5 144.5q0 41 -1 79 t-5 79v-2q-8 59 -29.5 130.5t-58.5 133t-89 103.5t-120 42q-78 0 -135.5 -54t-95 -134t-56 -169t-18.5 -159z" />
<glyph unicode="&#x153;" horiz-adv-x="1441" d="M92 340q0 70 25.5 136.5t72 117.5t108.5 82t138 31q84 0 157 -44.5t120 -109.5q47 72 117.5 114t158.5 42q76 0 138.5 -31t108.5 -82t71.5 -117.5t25.5 -136.5q0 -25 -20.5 -45.5t-44.5 -20.5h-482q18 -72 72.5 -122t130.5 -50q125 0 187 93l-2 -2q20 32 55 32 q29 0 46 -18.5t17 -44.5q0 -10 -1 -17.5t-7 -17.5v2q-47 -78 -127 -117t-168 -39q-82 0 -155.5 43t-120.5 109q-47 -72 -119 -113t-158 -41q-76 0 -138 31t-108.5 81t-72 116.5t-25.5 138.5zM221 340q0 -47 15.5 -89t44 -76t68.5 -53.5t87 -19.5q49 0 88 19.5t66.5 53.5 t42 77t14.5 90q0 45 -15.5 88t-43 76t-66.5 52.5t-86 19.5t-87 -19.5t-68.5 -53.5t-44 -77t-15.5 -88zM786 406h408q-18 74 -72.5 124t-132.5 50q-76 0 -130 -51.5t-73 -122.5z" />
<glyph unicode="&#x178;" horiz-adv-x="839" d="M61 1188q0 25 18.5 45t47.5 20q37 0 57 -36q35 -68 66 -125.5t60.5 -111.5t60 -110.5t65.5 -124.5q55 111 124 232t126 235q20 41 59 41q29 0 47.5 -20.5t18.5 -44.5q0 -10 -27.5 -65.5t-67.5 -132.5t-84 -159.5t-79 -148.5l-51 -96v-529q0 -29 -18.5 -47t-47.5 -18 t-47 18.5t-18 46.5v531q-4 8 -11.5 17t-11.5 20v-2q-20 35 -49 89t-60.5 114.5t-63.5 122t-57.5 112.5t-41 86t-15.5 41zM262 1337q0 31 24.5 56.5t59.5 25.5q31 0 56.5 -25.5t25.5 -56.5q0 -35 -25.5 -59.5t-56.5 -24.5q-35 0 -59.5 25t-24.5 59zM442 1337q0 31 25 56.5 t57 25.5q35 0 58.5 -25.5t23.5 -56.5q0 -35 -23.5 -59.5t-58.5 -24.5q-33 0 -57.5 25t-24.5 59z" />
<glyph unicode="&#x2c6;" horiz-adv-x="583" d="M141 1063q0 14 20.5 43t48.5 57.5t57.5 49t45.5 20.5q14 0 29.5 -6t24.5 -15l24 -26q14 -14 30.5 -32.5t31 -36t24.5 -32t10 -22.5q0 -18 -19 -32.5t-44 -14.5q-16 0 -31.5 6t-25.5 16l-54 64l-57 -64q-8 -10 -23.5 -16t-27.5 -6q-29 0 -46.5 14t-17.5 33z" />
<glyph unicode="&#x2dc;" horiz-adv-x="671" d="M141 1090q0 23 6.5 49t21.5 49.5t39.5 39t63.5 15.5q37 0 62.5 -16.5t43 -37t29 -36.5t19.5 -16q-2 0 -2 2v6q0 8 1 20.5t3 22.5v4q0 23 15.5 37t43.5 14q23 0 42.5 -14.5t19.5 -34.5q0 -23 -4 -50.5t-18.5 -51t-39 -40t-65.5 -16.5q-37 0 -63.5 16.5t-44 37t-28 37 t-16.5 16.5t-5 -15.5t-3 -35t-17.5 -35t-43.5 -15.5q-25 0 -42.5 16t-17.5 32z" />
<glyph unicode="&#x2000;" horiz-adv-x="768" />
<glyph unicode="&#x2001;" horiz-adv-x="1536" />
<glyph unicode="&#x2002;" horiz-adv-x="768" />
<glyph unicode="&#x2003;" horiz-adv-x="1536" />
<glyph unicode="&#x2004;" horiz-adv-x="512" />
<glyph unicode="&#x2005;" horiz-adv-x="384" />
<glyph unicode="&#x2006;" horiz-adv-x="256" />
<glyph unicode="&#x2007;" horiz-adv-x="256" />
<glyph unicode="&#x2008;" horiz-adv-x="192" />
<glyph unicode="&#x2009;" horiz-adv-x="307" />
<glyph unicode="&#x200a;" horiz-adv-x="85" />
<glyph unicode="&#x2010;" horiz-adv-x="743" d="M141 653q0 27 18.5 45.5t47.5 18.5h375q27 0 44 -18.5t17 -45.5q0 -25 -17.5 -45t-43.5 -20h-375q-29 0 -47.5 20.5t-18.5 44.5z" />
<glyph unicode="&#x2011;" horiz-adv-x="743" d="M141 653q0 27 18.5 45.5t47.5 18.5h375q27 0 44 -18.5t17 -45.5q0 -25 -17.5 -45t-43.5 -20h-375q-29 0 -47.5 20.5t-18.5 44.5z" />
<glyph unicode="&#x2012;" horiz-adv-x="743" d="M141 653q0 27 18.5 45.5t47.5 18.5h375q27 0 44 -18.5t17 -45.5q0 -25 -17.5 -45t-43.5 -20h-375q-29 0 -47.5 20.5t-18.5 44.5z" />
<glyph unicode="&#x2013;" horiz-adv-x="985" d="M141 653q0 27 18.5 45.5t47.5 18.5h596q25 0 45 -18.5t20 -45.5q0 -29 -20.5 -47t-44.5 -18h-596q-29 0 -47.5 18.5t-18.5 46.5z" />
<glyph unicode="&#x2014;" horiz-adv-x="1220" d="M141 653q0 27 18.5 45.5t47.5 18.5h815q29 0 47 -18.5t18 -45.5q0 -29 -18 -47t-47 -18h-815q-29 0 -47.5 18.5t-18.5 46.5z" />
<glyph unicode="&#x2018;" horiz-adv-x="397" d="M154 991v15q0 18 9 55t25.5 73.5t38 63.5t43.5 27q29 0 46.5 -20.5t17.5 -51.5q-10 -20 -19 -39q-8 -16 -15 -33.5t-9 -29.5q25 -23 24 -58q0 -35 -22.5 -58.5t-56.5 -23.5q-35 0 -56.5 22.5t-25.5 57.5z" />
<glyph unicode="&#x2019;" horiz-adv-x="397" d="M152 985l18 37q8 16 13 33.5t10 29.5q-25 25 -25 58q0 35 25.5 58.5t56.5 23.5q33 0 55.5 -22.5t26.5 -57.5v-10q0 -18 -9.5 -55.5t-25.5 -75t-37.5 -65.5t-46.5 -28q-27 0 -44 20.5t-17 53.5z" />
<glyph unicode="&#x201a;" horiz-adv-x="397" d="M141 -84q10 18 19 39q8 16 13 33.5t9 29.5q-25 25 -24 58q0 31 25.5 56.5t56.5 25.5q33 0 55 -24.5t27 -53.5v-17q0 -18 -10.5 -55t-27 -73.5t-38 -63.5t-43.5 -27q-27 0 -44.5 20.5t-17.5 51.5z" />
<glyph unicode="&#x201c;" horiz-adv-x="579" d="M154 991v13q0 18 9 55t25.5 73.5t38 64.5t43.5 28q29 0 46.5 -20.5t17.5 -51.5q-10 -20 -19 -39q-8 -16 -14 -33.5t-8 -29.5q25 -25 24 -58q0 -35 -23.5 -58.5t-57.5 -23.5q-35 0 -56.5 22.5t-25.5 57.5zM338 981v10q0 18 9 55t25.5 75t38 65.5t44.5 27.5q29 0 46 -20 t17 -53q-10 -20 -18 -39q-8 -16 -15.5 -32.5t-9.5 -29.5q25 -23 25 -57q0 -35 -24.5 -58.5t-55.5 -23.5q-35 0 -56.5 22.5t-25.5 57.5z" />
<glyph unicode="&#x201d;" horiz-adv-x="579" d="M152 985l18 37q16 35 25 63q-25 20 -25 58q0 35 24.5 58.5t55.5 23.5q35 0 56.5 -22.5t25.5 -57.5v-10q0 -18 -9.5 -55.5t-25.5 -75t-37.5 -65.5t-44.5 -28q-29 0 -46 20.5t-17 53.5zM336 973q10 18 18 39q8 16 14.5 33.5t8.5 29.5q-25 25 -25 58q0 35 23.5 58t58.5 23 t56.5 -22.5t25.5 -56.5v-13q0 -18 -9 -55t-25.5 -74t-38 -64.5t-44.5 -27.5q-29 0 -46 20.5t-17 51.5z" />
<glyph unicode="&#x201e;" horiz-adv-x="544" d="M141 -84q10 18 19 39q8 16 14 33.5t10 29.5q-25 23 -24 58q0 31 24.5 56.5t55.5 25.5q35 0 56 -24.5t26 -53.5v-17q0 -18 -10.5 -55t-27 -73.5t-37 -63.5t-42.5 -27q-29 0 -46.5 20.5t-17.5 51.5zM354 -90q10 18 19 39q8 16 13 33.5t9 29.5q-25 25 -24 58q0 35 25.5 58.5 t56.5 23.5q33 0 55 -23t27 -57v-11q0 -18 -9.5 -55t-26 -74.5t-38 -65.5t-45.5 -28q-27 0 -44.5 20.5t-17.5 51.5z" />
<glyph unicode="&#x2022;" horiz-adv-x="729" d="M141 653q0 51 17.5 98.5t50.5 84t78 59.5t98 23q55 0 100 -23t78 -59.5t50.5 -83.5t17.5 -99q0 -51 -17.5 -98t-50.5 -84t-78 -59.5t-100 -22.5q-53 0 -98 22.5t-78 59.5t-50.5 84t-17.5 98z" />
<glyph unicode="&#x2026;" horiz-adv-x="1077" d="M141 74q0 33 23.5 56.5t58.5 23.5q31 0 56.5 -24t25.5 -56q0 -35 -25.5 -58.5t-56.5 -23.5q-35 0 -58.5 23.5t-23.5 58.5zM465 74q0 31 25.5 56.5t56.5 25.5q33 0 57.5 -26t24.5 -56q0 -31 -24.5 -56.5t-57.5 -25.5q-31 0 -56.5 25.5t-25.5 56.5zM782 74q0 31 24.5 56.5 t57.5 25.5q35 0 58.5 -26t23.5 -56q0 -31 -23.5 -56.5t-58.5 -25.5q-33 0 -57.5 25.5t-24.5 56.5z" />
<glyph unicode="&#x202f;" horiz-adv-x="307" />
<glyph unicode="&#x2039;" horiz-adv-x="485" d="M137 336v8q0 4 1 11t5 16l133 286l-2 -2q8 16 23.5 29.5t38.5 13.5q25 0 44 -20.5t19 -44.5q0 -10 -11 -38t-26.5 -63.5t-35 -73.5t-33.5 -71l-23 -47l25 -53v2q14 -33 32.5 -71t35 -72.5t26.5 -61.5t10 -37q0 -27 -19.5 -45t-43.5 -18q-45 0 -62 39l2 -3l-133 289v-2 q-4 10 -5 15.5t-1 13.5z" />
<glyph unicode="&#x203a;" horiz-adv-x="485" d="M141 47q0 8 15.5 46t37 84t44 92t34.5 71q-12 25 -34.5 70t-44 91t-37 84t-15.5 48q0 25 18.5 45t45.5 20q16 0 31.5 -11t25.5 -28l139 -294q2 -10 2 -15.5v-9.5q0 -14 -2 -25l-139 -297q-8 -16 -24.5 -25t-32.5 -9q-27 0 -45.5 18t-18.5 45z" />
<glyph unicode="&#x205f;" horiz-adv-x="384" />
<glyph unicode="&#x20ac;" horiz-adv-x="913" d="M14 719q0 29 20.5 47t45.5 18h65q12 80 42 162t81 149.5t124 109.5t171 42q35 0 81 -13t88 -35.5t70.5 -51.5t28.5 -62q0 -29 -18 -47t-45 -18q-20 0 -38.5 15.5t-41 33.5t-52.5 33.5t-73 15.5q-47 0 -89 -24.5t-79 -68.5t-64.5 -105.5t-41.5 -135.5h366q25 0 45.5 -18 t20.5 -47q0 -23 -20.5 -43.5t-45.5 -20.5h-381q-2 -10 -1 -21t1 -22v-27.5t2 -27.5h383q25 0 45.5 -18t20.5 -47q0 -23 -20.5 -43.5t-45.5 -20.5h-366q14 -70 37.5 -130t57.5 -105.5t78 -71t97 -25.5q43 0 72 15.5t52.5 34t42 34t38.5 15.5q27 0 45 -19.5t18 -44.5 q0 -33 -29.5 -62.5t-70.5 -52t-88 -36t-80 -13.5q-172 0 -275.5 122t-137.5 339h-66q-25 0 -45.5 20.5t-20.5 43.5q0 29 20.5 47t45.5 18h51q0 18 -1 36.5t-1 39.5v22h-53q-25 0 -45.5 20.5t-20.5 43.5z" />
<glyph unicode="&#x2122;" horiz-adv-x="1179" d="M141 1198q0 29 29 29h313q29 0 29 -29q0 -27 -29 -27h-127v-563q0 -10 -9 -19t-19 -9q-12 0 -20.5 9t-8.5 19v563h-129q-29 0 -29 27zM545 608v598q0 12 9 20.5t19 8.5q23 0 31 -23l189 -514l190 519q9 18 27 18q29 0 28 -29v-598q0 -29 -28 -28q-10 0 -19.5 8t-9.5 20 v441l-160 -439q-4 -10 -8 -18t-20 -8q-20 0 -27 20l-164 445v-441q0 -29 -29 -28q-10 0 -19 8t-9 20z" />
<glyph unicode="&#xe000;" horiz-adv-x="696" d="M0 0v696h696v-696h-696z" />
<glyph unicode="&#xfb01;" horiz-adv-x="997" d="M61 659q0 29 18.5 47.5t45.5 18.5h84v270q0 117 67.5 176.5t180.5 59.5q29 0 64.5 -9.5t70.5 -25.5t63.5 -38.5t44.5 -49.5v2q4 -10 7.5 -16.5t3.5 -22.5q0 -25 -18.5 -44t-45.5 -19t-57 30v-2q-20 20 -52 43t-79 23t-84 -22.5t-37 -71.5v-283h154q25 0 44 -18.5 t19 -47.5q0 -27 -19.5 -45t-43.5 -18h-154v-545q0 -25 -18.5 -44t-47.5 -19q-27 0 -45 19.5t-18 43.5v545h-84q-27 0 -45.5 18.5t-18.5 44.5zM759 842q0 35 23.5 58.5t58.5 23.5q31 0 55.5 -23.5t24.5 -58.5q0 -33 -24.5 -56.5t-55.5 -23.5q-35 0 -58.5 23.5t-23.5 56.5z M776 53v576q0 25 18 45t47 20q23 0 43.5 -20.5t20.5 -44.5v-576q0 -25 -20.5 -45t-43.5 -20q-29 0 -47 20.5t-18 44.5z" />
<glyph unicode="&#xfb02;" horiz-adv-x="1024" d="M61 659q0 29 18.5 47.5t45.5 18.5h84v270q0 117 67.5 176.5t180.5 59.5q29 0 64.5 -9.5t70.5 -25.5t63.5 -38.5t44.5 -49.5v2q4 -10 7.5 -16.5t3.5 -22.5q0 -25 -18.5 -44t-45.5 -19t-57 30v-2q-20 20 -52 43t-79 23t-84 -22.5t-37 -71.5v-283h154q25 0 44 -18.5 t19 -47.5q0 -27 -19.5 -45t-43.5 -18h-154v-545q0 -25 -18.5 -44t-47.5 -19q-27 0 -45 19.5t-18 43.5v545h-84q-27 0 -45.5 18.5t-18.5 44.5zM823 51v1112q0 23 18.5 43.5t47.5 20.5t46 -20.5t17 -43.5v-1112q0 -25 -17 -44t-46 -19t-47.5 19.5t-18.5 43.5z" />
</font>
</defs>
</svg>
